<?xml version="1.0" standalone="no"?>
<!DOCTYPE svg PUBLIC "-//W3C//DTD SVG 1.1//EN" "http://www.w3.org/Graphics/SVG/1.1/DTD/svg11.dtd" >
<svg xmlns="http://www.w3.org/2000/svg">
<metadata></metadata>
<defs>
<font id="linotype_decoration_piregular" horiz-adv-x="2387" >
<font-face units-per-em="2048" ascent="1638" descent="-410" />
<missing-glyph horiz-adv-x="512" />
<glyph horiz-adv-x="2048" />
<glyph horiz-adv-x="2048" />
<glyph unicode="&#xd;" horiz-adv-x="512" />
<glyph unicode=" "  horiz-adv-x="512" />
<glyph unicode="&#x09;" horiz-adv-x="512" />
<glyph unicode="&#xa0;" horiz-adv-x="512" />
<glyph unicode="!" horiz-adv-x="1974" d="M61 449q0 88 27 167.5t78 140t125 96.5t170 36q63 0 128.5 -20.5t118 -64.5t86 -112.5t33.5 -163.5q0 -70 -24.5 -131t-65.5 -107t-96 -74t-119 -28q-59 0 -106 19.5t-81 55.5t-52.5 84t-18.5 106q0 43 14.5 84t41 73.5t65.5 53t88 20.5q29 0 57.5 -12.5t51 -34t36 -51 t13.5 -62.5q0 -55 -34 -94t-83 -39q-41 0 -61.5 19.5t-20.5 42.5q0 16 7 29.5t18 21.5v-19q0 -16 11 -24t26 -8q27 0 45 17t18 54t-24.5 61.5t-65.5 24.5q-53 0 -91 -45t-38 -112q0 -74 49 -132.5t135 -58.5q49 0 91 20.5t74 57.5t49.5 85t17.5 103q0 70 -24.5 123.5 t-66.5 90t-95.5 55t-110.5 18.5q-66 0 -124.5 -24.5t-102.5 -71.5t-69.5 -117t-25.5 -160q0 -94 27.5 -166.5t76 -123t113 -77t137.5 -26.5q113 0 213.5 54.5t171.5 191.5l156 297q47 88 101.5 145.5t113 91t119.5 47t125 13.5q86 0 164 -31t135 -90t91 -147.5t34 -204.5 q0 -88 -26.5 -168t-78 -140.5t-125 -96.5t-170.5 -36q-63 0 -128.5 20.5t-118 64.5t-86 112t-33.5 164q0 70 23.5 131t65.5 107.5t97.5 74t118.5 27.5q57 0 105.5 -20.5t82 -55.5t52 -83t18.5 -105q0 -43 -14.5 -84t-41 -74t-65.5 -53.5t-88 -20.5q-29 0 -57.5 12.5t-51 34 t-36 50t-13.5 63.5q0 55 34 94t83 39q41 0 61.5 -19.5t20.5 -41.5q0 -16 -7 -29.5t-17 -22.5v19q0 16 -11.5 24.5t-25.5 8.5q-27 0 -45.5 -17.5t-18.5 -54.5t24.5 -61.5t65.5 -24.5q53 0 91 45t38 113q0 74 -49 132t-135 58q-49 0 -91 -20.5t-74 -57.5t-49 -85t-17 -103 q0 -70 24.5 -123t66.5 -90t95 -55.5t111 -18.5q66 0 124 24.5t102 72t69.5 117t25.5 159.5q0 94 -27.5 167t-75.5 123t-112.5 76.5t-138.5 26.5q-113 0 -213.5 -54t-171.5 -192l-156 -297q-47 -88 -101.5 -145t-112.5 -91t-119.5 -47.5t-125.5 -13.5q-86 0 -163.5 31 t-135 90.5t-91.5 147.5t-34 205z" />
<glyph unicode="#" horiz-adv-x="2048" />
<glyph unicode="$" horiz-adv-x="2048" d="M92 346q0 78 30 145.5t82 117.5t119.5 79t145.5 29q109 0 206 -48t187 -122t175 -158t172 -157.5t177.5 -122t188.5 -48.5q68 0 126 22.5t101 63.5t67.5 98.5t24.5 125.5t-23.5 120t-62.5 88.5t-86 56t-96 19.5q-41 0 -81 -14t-71.5 -41t-51 -62.5t-19.5 -80.5 q0 -78 38 -114t81 -36q49 0 73.5 25.5t24.5 58.5q0 18 -4 29.5t-9 17.5t-9.5 10.5t-4.5 12.5q0 20 15 20q14 0 37.5 -26.5t23.5 -69.5q0 -47 -39 -87t-108 -40q-86 0 -133.5 59.5t-47.5 139.5q0 55 25 102t64.5 83t91 55.5t104.5 19.5q68 0 127 -30t104.5 -79t72 -111.5 t26.5 -125.5q0 -78 -30 -145.5t-82 -118t-120.5 -79t-144.5 -28.5q-102 0 -196.5 48t-183.5 122t-176 158t-176 157.5t-181.5 121.5t-192.5 48q-68 0 -126 -22.5t-101 -63.5t-67.5 -98t-24.5 -125t23.5 -120t62.5 -89t86 -56.5t96 -19.5q41 0 81 14.5t71.5 40t51 62.5 t19.5 82q0 78 -38 114t-81 36q-49 0 -73.5 -26t-24.5 -58q0 -18 4 -29.5t9 -18t9.5 -10.5t4.5 -12q0 -20 -15 -20q-14 0 -37.5 26.5t-23.5 69.5q0 47 39 87t108 40q86 0 133.5 -59.5t47.5 -139.5q0 -55 -25 -102t-64.5 -83t-91 -55.5t-104.5 -19.5q-68 0 -127 29.5 t-104.5 79t-72 110.5t-26.5 127z" />
<glyph unicode="%" horiz-adv-x="2007" d="M57 12q33 33 47.5 60.5t14.5 62.5q0 29 -7.5 62.5t-16.5 70.5t-16 76t-7 76q0 80 26.5 148.5t73.5 117.5t108.5 77t133.5 28q57 0 109 -19.5t92 -55.5t65 -85t25 -111q0 -96 -57.5 -162.5t-147.5 -66.5t-133 49t-43 109q0 66 43 105.5t90 39.5q14 0 28.5 -9.5t14.5 -25.5 q0 -39 -43 -39q-23 0 -47.5 -19.5t-24.5 -51.5q0 -27 27.5 -55.5t87.5 -28.5q55 0 99 39.5t44 111.5q0 43 -18.5 81t-49 67.5t-71.5 47t-86 17.5q-63 0 -113.5 -25.5t-86.5 -68.5t-54.5 -96.5t-18.5 -108.5q0 -72 25 -134.5t71 -108.5t109.5 -73.5t143.5 -27.5 q82 0 157.5 33t133 89t92 133t34.5 167q0 74 -25.5 141.5t-64.5 132.5l47 33q68 -80 118 -169t77 -148l20 32q84 135 190.5 198t244.5 63q45 0 73.5 -6.5t51 -12.5t48 -12t64.5 -6t69.5 13t82.5 54l43 -43q-33 -33 -47.5 -60.5t-14.5 -62.5q0 -29 7.5 -62.5t16.5 -70.5 t16 -75.5t7 -75.5q0 -80 -26.5 -148.5t-73.5 -118t-109.5 -77t-132.5 -27.5q-57 0 -109 19.5t-92 55.5t-64.5 85t-24.5 110q0 96 57 163t147 67t133 -49.5t43 -108.5q0 -66 -43 -105.5t-90 -39.5q-14 0 -28.5 9t-14.5 25q0 39 43 39q23 0 47.5 19.5t24.5 52.5 q0 27 -27.5 55.5t-87.5 28.5q-55 0 -99 -40t-44 -112q0 -43 17.5 -80.5t48 -67.5t71.5 -47.5t88 -17.5q63 0 113.5 26t86.5 69t54.5 96t18.5 108q0 70 -25 133.5t-71 109.5t-109.5 74t-143.5 28q-84 0 -159.5 -32t-133 -88.5t-91 -136t-33.5 -174.5q0 -74 23.5 -139 t66.5 -131l-47 -33q-68 72 -114 149t-85 165q-33 -55 -75 -106.5t-96 -91.5t-124 -63.5t-156 -23.5q-45 0 -73.5 6t-51 12.5t-48 12.5t-64.5 6t-69.5 -13.5t-82.5 -54.5z" />
<glyph unicode="&#x26;" horiz-adv-x="1818" d="M31 1260q0 18 15 30.5t34.5 18.5t40 8t31.5 2q-31 51 -53.5 101t-22.5 112q0 41 13 78t54 55q-8 -14 -13 -37.5t-5 -38.5q0 -51 21.5 -101t54 -95t71.5 -83t76 -67q94 -78 185.5 -172t166 -200.5t126 -224.5t67.5 -243h4v148q0 111 -12.5 221.5t-30.5 210.5q-2 8 -5 25.5 t-6 37t-5 36t-2 24.5q0 35 21 55.5t52 20.5t52.5 -20.5t21.5 -55.5q0 -8 -2 -24.5t-5 -36t-6 -37t-5 -25.5q-18 -100 -30.5 -210.5t-12.5 -221.5v-148h4q14 125 66 243t127 224.5t166 200.5t185 172q37 29 76 67t72 83t54.5 95t21.5 101q0 14 -5.5 38t-13.5 38 q41 -18 54.5 -55t13.5 -78q0 -61 -22.5 -111.5t-53.5 -101.5q10 0 30.5 -2t40 -8t35 -18.5t15.5 -30.5q0 -63 -65.5 -106.5t-170.5 -43.5q-68 0 -107.5 -21.5t-39.5 -41.5q0 -18 31 -19q12 0 33.5 9.5t43.5 9.5q37 0 65 -10.5t47.5 -25t29.5 -30.5t10 -27q0 -14 -12 -14h-11 q-20 8 -38 8q-45 0 -60.5 -29.5t-15.5 -115.5q0 -98 -47 -146.5t-115 -48.5q-41 0 -69.5 14.5t-47 35t-28 43t-11.5 38.5q-4 23 -11 40.5t-32 17.5q-18 0 -40.5 -23.5t-45 -62.5t-46 -90.5t-42.5 -108.5q-27 -80 -38 -145.5t-15 -117.5t-6 -92t-8 -71h4q20 43 53 90t81 87 t111.5 66.5t147.5 26.5q35 0 72 -6q16 53 53 87t94 34q66 0 97.5 -42t31.5 -105q0 -41 -14.5 -72t-36 -50.5t-47 -29.5t-49.5 -10q-53 0 -89 39t-44 100q-14 4 -33 5t-33 1q-86 0 -149.5 -25.5t-110.5 -68.5t-77 -98.5t-48 -114.5h-61q-18 59 -48 114.5t-77 98.5 t-110.5 68.5t-149.5 25.5q-14 0 -33 -1t-33 -5q-8 -61 -44 -100t-89 -39q-25 0 -51.5 10t-48 29.5t-35 50.5t-13.5 72q0 63 32 105t97 42q57 0 94.5 -34t53.5 -87q37 6 72 6q84 0 147.5 -26.5t111.5 -66.5t79.5 -87t54.5 -90h4q-6 31 -8 71t-6.5 92t-15.5 117.5t-38 145.5 q-18 57 -41.5 108.5t-46 90.5t-45 62.5t-41.5 23.5q-25 0 -32 -17.5t-11 -40.5q-2 -16 -11 -38.5t-27.5 -43t-47 -35t-69.5 -14.5q-68 0 -115 48.5t-47 146.5q0 86 -15.5 115.5t-60.5 29.5q-18 0 -39 -8h-10q-12 0 -12 14q0 10 10 26.5t29.5 31t47 25t64.5 10.5 q23 0 44.5 -9.5t33.5 -9.5q31 0 31 19q0 20 -40 41.5t-108 21.5q-104 0 -169.5 43t-65.5 107zM494 1460q0 14 24.5 37t58 44.5t69.5 36.5t61 15q29 0 78.5 -14t121.5 -14t123 14t80 14q25 0 60.5 -15t69.5 -36.5t57.5 -44t23.5 -37.5q0 -18 -12 -18q-8 0 -24.5 7t-24.5 11 q-16 -25 -39 -45t-56 -20q-35 0 -62.5 23.5t-41.5 51.5l-37 -53q-12 -18 -29.5 -43.5t-35 -49.5t-32 -41t-20.5 -17q-4 0 -18.5 17t-31.5 41t-34.5 49.5t-29.5 43.5l-37 53q-16 -29 -43 -52t-62 -23q-33 0 -55.5 20.5t-40.5 44.5q-6 -4 -22.5 -11t-24.5 -7q-14 0 -14 18z M778 1823q0 27 12.5 56.5t45.5 29.5q12 0 31.5 -5.5t45.5 -5.5l-4 5v-5q27 0 46.5 5.5t31.5 5.5q33 0 45 -30t12 -56q0 -43 -15 -61.5t-34.5 -32t-39 -31t-25.5 -60.5h-37q-6 43 -25.5 60.5t-39 31t-35 32t-15.5 61.5z" />
<glyph unicode="(" d="M10 1311q0 86 36 159.5t107.5 127t180 84t254.5 30.5q109 0 201 -14.5t181 -36t180 -46t198.5 -46t236.5 -35.5t293 -14h86q80 0 154.5 -35t132 -91.5t92.5 -130t35 -149.5q0 -78 -29 -139.5t-76 -104.5t-109.5 -65.5t-129.5 -22.5q-72 0 -124 23.5t-87 60.5t-52.5 83 t-17.5 89q0 45 14.5 79t37 55.5t50 33t56.5 11.5q53 0 96 -30t43 -89q0 -29 -11 -59.5t-34 -47.5l-33 29q10 12 19.5 33.5t9.5 44.5q0 31 -28.5 50t-57.5 19q-47 0 -80 -38.5t-33 -90.5q0 -43 18.5 -77.5t49.5 -57t68.5 -35t76.5 -12.5q57 0 105.5 25.5t84.5 65.5t55 90 t19 102q0 70 -24.5 126t-67.5 96t-102.5 62.5t-126.5 22.5q-74 0 -146.5 -26.5t-131 -76t-94.5 -118t-36 -154.5q0 -96 36 -171t94.5 -135t132 -111.5t151.5 -100.5t151.5 -103.5t132 -121t94.5 -150.5t36 -192q0 -109 -35 -196t-96.5 -147.5t-144.5 -93t-177 -32.5 q-98 0 -176 32.5t-132 86t-83 121t-29 139.5q0 63 23.5 122.5t63.5 104.5t94.5 71.5t115.5 26.5q68 0 121 -22.5t88 -57.5t53.5 -76.5t18.5 -78.5q0 -49 -14.5 -83t-38 -56.5t-52 -33t-57.5 -10.5t-60.5 14.5t-54.5 41.5l33 32q10 -8 34.5 -23t47.5 -15q39 0 69.5 33.5 t30.5 95.5q0 63 -43 114t-129 51q-37 0 -75.5 -15t-71.5 -45t-53.5 -75t-20.5 -102q0 -68 23.5 -124t65.5 -97t100.5 -63.5t130.5 -22.5q59 0 124.5 23.5t120 69.5t89 115.5t34.5 163.5q0 109 -35.5 190t-94 144.5t-132.5 113.5t-151.5 98t-151.5 99.5t-132 116t-94 148.5 t-36 196q0 43 15.5 107.5t68.5 130.5l-4 4q-18 -12 -44 -34.5t-53.5 -53.5t-54 -68t-47.5 -77q-29 -57 -58.5 -131t-65.5 -151t-81 -149.5t-104.5 -130t-135 -92.5t-171.5 -35q-59 0 -119 19.5t-108 60.5t-77.5 106.5t-29.5 157.5v76l-103 53q-63 33 -119.5 77t-97.5 99.5 t-65.5 120t-24.5 140.5zM195 1305q0 -27 8 -72t32.5 -95.5t69.5 -99.5t119 -86l45 -22l29 33q86 98 158.5 132.5t162.5 34.5q86 0 126 -45t40 -108q0 -35 -19.5 -72t-60.5 -67.5t-104.5 -51t-151.5 -20.5q-49 0 -88 8t-67 12v-36q0 -63 23.5 -113.5t60 -86.5t79.5 -55.5 t82 -19.5q119 0 201 49t140.5 127t102.5 175.5t90 194.5t102.5 185t137.5 146l189 127v4h-31q-45 0 -127 12t-182 30.5t-209 41t-209 41t-182 31t-127 12.5q-115 0 -198 -28t-136 -75t-79.5 -109.5t-26.5 -133.5zM537 897l20 -8q47 -18 98.5 -27.5t98.5 -9.5q92 0 137 41 t45 94q0 31 -31 56.5t-90 25.5q-27 0 -63.5 -10t-73.5 -29.5t-72 -48.5t-59 -68z" />
<glyph unicode=")" d="M10 -14q0 109 36 192.5t94.5 150t132 121t151.5 103.5t151.5 100.5t132 111.5t94.5 135t36 171q0 86 -36 154.5t-94.5 118t-131 76t-146.5 26.5q-68 0 -127 -22.5t-102 -62.5t-67.5 -96.5t-24.5 -125.5q0 -51 19 -101.5t55 -90.5t84 -65.5t106 -25.5q39 0 76.5 12.5 t68.5 35t49.5 57t18.5 77.5q0 51 -33 90t-80 39q-29 0 -57.5 -19.5t-28.5 -49.5q0 -23 9.5 -44.5t19.5 -33.5l-33 -29q-23 16 -34 47t-11 60q0 59 43 89t96 30q27 0 55.5 -11.5t51 -33t37 -55.5t14.5 -79q0 -43 -17.5 -89t-52.5 -83t-88 -60.5t-123 -23.5q-68 0 -130 22.5 t-109 65.5t-76 104.5t-29 139.5q0 76 35 149.5t92.5 130t132 91.5t154.5 35h86q164 0 293 14t236.5 35.5t198.5 46t180 46t181.5 36t200.5 14.5q145 0 254 -30.5t180.5 -84t107.5 -127t36 -159.5q0 -76 -24.5 -140.5t-65.5 -120t-97.5 -99.5t-119.5 -77l-103 -53v-76 q0 -92 -29.5 -157.5t-78 -106.5t-107.5 -60.5t-119 -19.5q-98 0 -173 35t-134 92.5t-104 130t-81 149.5t-65.5 150.5t-58.5 131.5q-20 41 -47 77.5t-54.5 67.5t-53 53.5t-44.5 34.5l-4 -4q53 -66 68.5 -130.5t15.5 -107.5q0 -113 -36 -196.5t-94 -148t-132 -116 t-151.5 -99.5t-151.5 -98t-132.5 -113.5t-94 -144.5t-35.5 -190q0 -94 34.5 -163.5t89 -115.5t120 -69.5t124.5 -23.5q70 0 129.5 22.5t101.5 63.5t65.5 97t23.5 124q0 57 -20.5 102t-53.5 75t-72 45t-75 15q-86 0 -129 -51t-43 -114q0 -61 30.5 -95t69.5 -34q23 0 47.5 15 t34.5 23l33 -32q-23 -27 -54.5 -41.5t-60.5 -14.5t-57.5 10.5t-52 33t-38 56.5t-14.5 83q0 37 18.5 78.5t53.5 76.5t88 57.5t121 22.5q61 0 115.5 -26.5t94.5 -71.5t63.5 -104.5t23.5 -122.5q0 -72 -29 -139.5t-83 -121t-132 -86t-176 -32.5q-94 0 -177 32.5t-144.5 93 t-96.5 147.5t-35 196zM686 1479l188 -127q82 -59 138.5 -146.5t102.5 -184.5t90 -194.5t102.5 -175.5t139.5 -127t202 -49q39 0 82 19.5t79.5 55.5t60 86t23.5 114v36q-29 -4 -67.5 -12t-87.5 -8q-88 0 -151.5 20.5t-104.5 51t-60.5 67.5t-19.5 72q0 63 40 108t126 45 q90 0 162.5 -34.5t158.5 -132.5l29 -33l45 22q74 37 119 86t69.5 99.5t32.5 95.5t8 72q0 72 -26.5 134t-79.5 109t-137 75t-197 28q-45 0 -127 -12.5t-182.5 -31t-209 -41t-208.5 -41t-182 -30.5t-127 -12h-31v-4zM1452 987q0 -53 45 -94t137 -41q100 0 197 37l20 8l-10 16 q-25 39 -59.5 68t-71.5 48.5t-74 29.5t-63 10q-59 0 -90 -25.5t-31 -56.5z" />
<glyph unicode="*" horiz-adv-x="2048" d="M49 305q0 66 24.5 130.5t73 114.5t121 82t168.5 32q98 0 177 -31t144.5 -83t119 -123t98.5 -151l14 -32h4v14q0 55 -10 114.5t-29.5 115t-47 104.5t-62.5 84l-15 14l17 15q61 53 99 115.5t71 156.5l8 24l8 -24q33 -94 71 -156.5t99 -115.5l17 -15l-15 -14 q-35 -35 -62.5 -84t-47 -104.5t-29.5 -115t-10 -114.5v-14h4l14 32q45 80 98.5 151t119 123t144 83t177.5 31q96 0 168.5 -32t121 -82t73 -114.5t24.5 -130.5q0 -68 -23.5 -124t-63.5 -96t-93.5 -62.5t-112.5 -22.5q-119 0 -191.5 63.5t-72.5 161.5q0 104 54 154.5t140 50.5 q78 0 123 -44t45 -99q0 -43 -30.5 -74t-73.5 -31t-74 31t-31 74q0 31 15.5 55.5t40.5 34.5v4q-72 0 -116 -40t-44 -112q0 -78 57.5 -129t157.5 -51q49 0 93 18.5t78 51.5t53.5 76t19.5 92q0 47 -21.5 95t-64.5 86t-108.5 61.5t-153.5 23.5q-109 0 -207.5 -42t-174 -119 t-120.5 -183.5t-45 -237.5v-102h-62v102q0 131 -45 237.5t-120.5 183.5t-175 119t-206.5 42q-90 0 -155.5 -23.5t-108.5 -61.5t-63.5 -86t-20.5 -95q0 -49 19.5 -92t53.5 -76t78 -51.5t93 -18.5q100 0 157.5 51.5t57.5 128.5q0 72 -44 112t-116 40v-4q25 -10 40.5 -35 t15.5 -55q0 -43 -31 -74t-74 -31t-73.5 31t-30.5 74q0 55 45 99t123 44q86 0 140 -50t54 -155q0 -98 -72.5 -161.5t-191.5 -63.5q-59 0 -112.5 22.5t-93.5 62.5t-63.5 96.5t-23.5 123.5z" />
<glyph unicode="+" horiz-adv-x="1974" d="M57 184q0 57 23.5 101.5t61.5 72t87.5 42t102.5 14.5q86 0 160.5 -24.5t150.5 -53.5t159 -53.5t185 -24.5t185 24.5t159 53.5t150.5 53.5t160.5 24.5q51 0 101.5 -14.5t88.5 -42t61.5 -71.5t23.5 -102q0 -90 -55.5 -149.5t-147.5 -59.5q-37 0 -64.5 14.5t-46 35t-26.5 43 t-8 41.5q0 57 32.5 82.5t69.5 25.5t65.5 -24.5t28.5 -73.5q0 -23 -15 -44.5t-32 -33.5l4 -4q57 4 95 43t38 100q0 25 -10 50.5t-29.5 47t-50 36t-71.5 14.5q-57 0 -110.5 -26t-106 -62.5t-106.5 -81.5t-114.5 -82t-127 -62.5t-142.5 -25.5q-78 0 -143.5 25.5t-126 62.5 t-114.5 82t-106.5 81.5t-105.5 62.5t-110 26q-41 0 -72 -14.5t-50.5 -36t-29.5 -47t-10 -50.5q0 -61 38 -100t95 -43l4 4q-16 12 -31.5 33.5t-15.5 44.5q0 49 28.5 73.5t65.5 24.5t70 -25.5t33 -82.5q0 -18 -8.5 -41t-27 -43.5t-46 -35t-64.5 -14.5q-92 0 -147.5 59.5 t-55.5 149.5zM57 680q0 90 55.5 149.5t147.5 59.5q37 0 64.5 -14.5t46 -35t27 -43t8.5 -40.5q0 -57 -33 -83t-70 -26t-65.5 24.5t-28.5 73.5q0 23 15.5 44.5t31.5 33.5l-4 4q-57 -4 -95 -43t-38 -100q0 -25 10 -51.5t29.5 -48t50.5 -34.5t72 -13q57 0 110 25.5t105.5 62.5 t106.5 82t114.5 81.5t127 62.5t142.5 26t142.5 -26t127 -62.5t114.5 -81.5t106.5 -82t105.5 -62.5t111 -25.5q41 0 71.5 13t50 34.5t29.5 48t10 51.5q0 61 -37.5 100t-95.5 43l-4 -4q16 -12 31.5 -33.5t15.5 -44.5q0 -49 -28.5 -73.5t-65.5 -24.5t-69.5 25.5t-32.5 83.5 q0 18 8 40.5t26.5 43t46 35t64.5 14.5q92 0 147.5 -59.5t55.5 -149.5q0 -59 -23.5 -102t-61.5 -71t-88 -42t-102 -14q-86 0 -160.5 24.5t-150.5 53t-158.5 53t-185.5 24.5q-102 0 -185 -24.5t-159 -53t-150.5 -53t-160.5 -24.5q-53 0 -102.5 14t-87.5 42t-61.5 71t-23.5 102 z" />
<glyph unicode="," horiz-adv-x="2007" d="M86 432q0 88 15.5 156.5t37 115t44 70t36.5 23.5q4 0 33 -15l151 -86q57 -33 93 -81t62 -94t49.5 -78.5t56.5 -32.5q18 0 35.5 17t17.5 34q0 20 -21.5 41.5t-50.5 48.5q-29 23 -58.5 50.5t-54 69.5t-41 100t-16.5 144q0 25 1 36.5t1 16.5t1 9t1 14q0 16 -2 25.5t-2 50.5 q0 29 23 29q10 0 36.5 -11.5t61.5 -48.5l16 -16l6 27q14 59 50.5 119.5t85.5 99.5q61 47 118.5 89t106.5 113l74 25q14 -59 37.5 -87t66.5 -60q41 -35 80 -70t70.5 -74t54 -83t33.5 -99l16 16q35 37 61.5 48.5t36.5 11.5q23 0 23 -29q0 -41 -2 -50t-2 -26q0 -10 1 -14t1 -9 t1 -16.5t1 -36.5q0 -86 -16.5 -144t-41 -100t-54 -70t-58.5 -50q-29 -27 -50.5 -48.5t-21.5 -41.5q0 -16 17.5 -33.5t35.5 -17.5q33 0 56.5 32.5t49.5 78.5t61.5 94.5t93.5 80.5l151 86q29 14 33 15q14 0 36.5 -23.5t44 -70t37 -115t15.5 -156.5q0 -92 -35 -182t-112 -146 q25 -29 41 -60.5t16 -47.5q0 -25 -87 -53.5t-259 -28.5q-117 0 -176.5 31.5t-90 68.5t-47 69t-47.5 32q-16 0 -29.5 -8.5t-24.5 -29t-17 -57t-6 -92.5q0 -63 12 -133.5t35 -148.5l2 -11q-16 -23 -39 -40t-53 -27q-31 10 -53.5 27.5t-39.5 39.5l2 11q23 78 35.5 148.5 t12.5 133.5q0 55 -6.5 92t-17.5 57.5t-25.5 29t-28.5 8.5q-31 0 -47.5 -32t-47 -69t-90 -68.5t-176.5 -31.5q-172 0 -259 28.5t-87 53.5q0 16 16.5 48t40.5 60q-78 55 -112.5 145.5t-34.5 182.5zM152 408q0 -98 60 -173t155 -102l-13 -31q-27 -20 -54.5 -39.5t-43.5 -48.5 q39 -12 103.5 -25.5t158.5 -13.5q88 0 135 39t78 86t56.5 86t70.5 39q29 0 51.5 -17.5t41 -42t31.5 -52t22 -47.5q8 20 21 47.5t31.5 52t41 42t51.5 17.5q45 0 70.5 -39t56.5 -86t78 -86t135 -39q94 0 158.5 13.5t103.5 25.5q-16 29 -44 48.5t-54 39.5l-13 31 q94 27 154.5 101.5t60.5 173.5q0 68 -27.5 135t-68.5 121l-139 -68q-55 -27 -88 -71t-60.5 -86t-61.5 -72.5t-91 -30.5q-41 0 -78 35t-37 108q0 23 40 48.5t87 69.5t87 116.5t40 187.5q0 51 -2 63.5t-8 12.5q-10 0 -23.5 -10.5t-27 -23.5t-24.5 -23.5t-15 -10.5 q-12 0 -13.5 27t-12.5 70t-40.5 98t-99.5 110q-29 23 -52.5 39.5l-47 33t-45 33.5t-43.5 40q-23 -23 -44.5 -40t-45 -33.5t-48 -33t-51.5 -39.5q-70 -55 -99.5 -110t-40.5 -98t-12 -70t-14 -27q-4 0 -15 10.5t-24.5 23.5t-28 23.5t-22.5 10.5q-6 0 -8 -12.5t-2 -63.5 q0 -115 40 -187.5t87 -116.5t87 -69.5t40 -48.5q0 -74 -37 -108.5t-78 -34.5q-57 0 -91 30.5t-61.5 72.5t-60.5 86t-88 71l-139 68q-41 -53 -68.5 -121t-27.5 -135zM295 422l14 57l10 -18q76 -123 161 -183.5t208 -60.5q14 0 25.5 3t25.5 3l-8 -10q-23 -27 -42 -36t-40 -9 q-115 2 -195.5 53t-150.5 187zM713 817q0 6 7 9t15 3q25 0 59.5 -24.5t68.5 -67.5t64.5 -101t47.5 -124h4v57q0 61 -9 151.5t-9 170.5q0 98 5 158.5t12 92.5t14 42t12 10q4 0 11 -10t14 -42t12.5 -92.5t5.5 -158.5q0 -80 -9.5 -170t-9.5 -152v-57h4q16 66 47 124t65 101 t68.5 67.5t59.5 24.5q8 0 15 -3t7 -9q0 -8 -18 -24q-117 -109 -177.5 -224.5t-58.5 -222.5l-36 -24l-37 24q2 106 -58.5 222t-177.5 225q-18 16 -18 24zM1253 223q14 0 25.5 -3t26.5 -3q123 0 207.5 60.5t160.5 183.5l10 18l15 -57l-8 -14q-35 -68 -73 -113t-79 -72.5 t-89 -40t-106 -14.5q-20 0 -39.5 9t-41.5 36z" />
<glyph unicode="-" horiz-adv-x="2048" d="M18 168q0 74 35 128t92.5 91t131 57.5t151.5 30.5l12 2l6 8q72 98 182.5 144.5t229.5 46.5q80 0 148.5 -17.5t119.5 -44.5l11 -4l-19 90h12q137 0 232.5 -29.5t155 -77.5t85 -109.5t25.5 -125.5q0 -39 -10 -75.5t-25 -63.5l-6 -12l17 -17q72 -74 123 -101.5t83 -27.5 q41 0 62.5 22.5t21.5 51.5q0 51 -51 62l2 8q16 66 78 65q45 0 76 -33.5t31 -82.5q0 -57 -49.5 -105.5t-147.5 -48.5q-25 0 -52.5 5t-63.5 20.5t-83 42t-110 69.5l-56 37q12 27 13 55q0 57 -17.5 112.5t-45 101.5t-62.5 81t-72 49l-10 5l2 -5q47 -96 63.5 -165.5t16.5 -141.5 v-12q-51 35 -120 70.5t-118 52.5l-4 8q-23 45 -55.5 87t-68.5 74t-70.5 50t-61.5 18h-6l-4 -4l8 -2q47 -29 76 -77t37 -99l2 -8l-8 4q-31 12 -70 22.5t-83 17.5t-88 12t-83 5h-47.5t-46.5 -2v-4h14q174 -23 318.5 -78t259.5 -139l39 -26l-11 -11q-47 -47 -97 -70.5 t-118 -39.5h-4v-4q20 -10 46 -17.5t69 -7.5q55 0 112.5 20.5t96.5 49.5l4 4l90 -90l-6 -7q-41 -33 -102.5 -48t-133.5 -15q-92 0 -171 27.5t-130 68.5l-6 6q25 14 41 38t16 53q0 37 -28.5 76.5t-82.5 72.5t-132 54.5t-178 21.5t-169 -20.5t-111 -53.5t-60.5 -70.5 t-18.5 -70.5q0 -47 27.5 -69.5t50.5 -22.5q14 0 27.5 6t23.5 6q35 0 35 -45q0 -29 -23.5 -53.5t-72.5 -24.5q-18 0 -43 8t-46.5 28.5t-37 52.5t-15.5 79z" />
<glyph unicode="." horiz-adv-x="2048" d="M41 1065q0 94 30.5 178t88 146.5t140.5 98.5t185 36q90 0 183.5 -32t168 -94.5t123 -155.5t48.5 -216q0 -25 -1 -34t-1 -14t-1 -14.5t-1 -35.5q0 -55 7 -80t29 -25q16 0 37 31t21 72q0 104 39 191t102.5 148.5t146 96.5t173.5 35q82 0 162.5 -32t144 -90t102.5 -142 t39 -187q0 -90 -37 -178t-104.5 -157.5t-161.5 -112.5t-209 -43q-41 0 -80 8t-74 18t-62.5 17.5t-43.5 7.5q-33 0 -33 -14q0 -25 33 -79.5t104 -119.5l91 -84q33 -31 69.5 -51.5t68 -32.5t58.5 -17.5t41 -5.5q70 0 98.5 33t28.5 58q0 18 -10 41.5t-27 52.5h12 q55 0 101.5 -34t46.5 -93q0 -25 -9.5 -50.5t-31 -46t-54 -34t-79.5 -13.5q-43 0 -94.5 16.5t-85.5 30.5l-4 -4l49 -36q39 -35 77.5 -68t79.5 -66.5t87 -70.5t104 -76l-19 -109l-106 -18l-19 27q-18 25 -49.5 64.5t-70.5 85.5t-80 94t-78 87l-29 35l-4 -4q23 -51 35 -88 t12 -84q0 -98 -40 -141t-97 -43q-49 0 -89 28.5t-40 81.5v36t4 28q29 -25 49.5 -38t36.5 -13q35 0 62.5 34.5t27.5 106.5q0 63 -43 140t-106.5 144.5t-133 116.5t-122.5 60v-29q4 -39 11 -70.5t17 -66.5q8 -33 14.5 -67t6.5 -77q0 -102 -39 -193t-104.5 -159.5 t-154.5 -108.5t-190 -40q-98 0 -180 35.5t-142 97t-94 142.5t-34 171q0 94 30.5 175t89 141.5t142.5 98.5t188 50q72 8 102 20.5t30 34.5q0 25 -31 32t-76 7q-27 0 -51.5 -2t-65.5 -2q-90 0 -176 32t-155.5 94.5t-111.5 156.5t-42 219zM176 1026q0 -78 27.5 -148.5t83 -125 t138.5 -88t193 -39.5q106 -4 143.5 -29t37.5 -53q0 -39 -32 -73t-110 -50q-174 -41 -264 -139.5t-90 -229.5q0 -61 25.5 -122.5t71.5 -110.5t107.5 -79t135.5 -30q80 0 151.5 30t124 85t83 133t30.5 174q0 43 -4 72.5t-8 54.5q-4 23 -8 42t-4 40q0 37 11 59.5t46 22.5 q16 0 42 -4t52 -19l10 -8l5 4l-5 6q-16 39 -22 66t-6 39q0 35 28.5 48t57.5 13q23 0 44 -6t48 -12q27 -8 57.5 -14.5t71.5 -6.5q84 0 161 33t135 87t93 125t35 149q0 72 -30 134t-79 108t-111.5 72t-127.5 26q-80 0 -146.5 -35t-115 -83t-76 -98.5t-27.5 -78.5q0 -18 -8 -53 t-23.5 -69t-38 -58.5t-53.5 -24.5q-14 0 -29.5 9t-28.5 31.5t-21.5 60.5t-10.5 98q-2 98 -37 178t-92 135t-132 85t-157 30q-70 0 -133 -30t-112.5 -79t-78 -114.5t-28.5 -139.5zM365 1163l16 17l479 -369l80 -143l-16 -17l-158 64zM504 -172l280 534l127 105l21 -14 l-37 -166l-373 -473zM1098 643l100 137l533 281l12 -21l-475 -374l-158 -43z" />
<glyph unicode="/" horiz-adv-x="2048" d="M49 555q0 78 31 139.5t81 103.5t114.5 64.5t130.5 22.5q55 0 108 -13.5t133 -60.5l25 -14l37 53q39 55 72.5 73.5t60.5 18.5q45 0 76.5 -31.5t52 -79t33 -104.5t16.5 -106h8q4 49 16.5 106t33 104.5t52 79t76.5 31.5q27 0 60.5 -18.5t72.5 -73.5l37 -53l25 14 q80 47 133 60.5t108 13.5q66 0 130.5 -22.5t114.5 -64.5t81 -103.5t31 -139.5q0 -127 -60.5 -181.5t-154.5 -54.5q-78 0 -158 47.5t-139 153.5l-125 223q-29 -27 -62.5 -72.5t-60.5 -92.5l39 -19q49 -25 93 -62.5t76 -87t50.5 -107.5t18.5 -122q0 -53 -15.5 -91t-40 -63.5 t-56.5 -38t-65 -12.5q-51 0 -90 26t-65.5 68t-40 96t-13.5 114q0 68 19.5 139t42.5 137q-68 18 -131 18l-25 -540h-24l-25 540q-63 0 -131 -18q23 -66 42.5 -137.5t19.5 -138.5q0 -59 -13.5 -113.5t-40 -96.5t-65.5 -68t-90 -26q-33 0 -65 12.5t-56.5 38t-40 63.5t-15.5 91 q0 63 18.5 121.5t50.5 108t76 87.5t93 62l39 19q-27 47 -60.5 93t-62.5 72l-125 -223q-59 -106 -139 -153.5t-158 -47.5q-94 0 -154.5 54.5t-60.5 181.5zM258 621q0 -92 43 -135.5t90 -43.5q39 0 82 30t80 101l98 189l-26 18q-47 33 -86 44.5t-76 11.5t-74 -12.5t-65.5 -38 t-47 -66.5t-18.5 -98zM618 293q0 -59 36 -89t79 -32q55 0 95 45t40 137q0 47 -13 98.5t-28 88.5l-55 -25q-86 -39 -120 -102.5t-34 -120.5zM705 768q39 -29 76.5 -83t56.5 -97q35 16 72.5 25.5t72.5 9.5v16q0 27 -12.5 64.5t-34 71.5t-49 57.5t-56.5 23.5q-25 0 -60.5 -20.5 t-57.5 -55.5zM1065 623q35 0 73 -9.5t72 -25.5q18 43 56.5 97t76.5 83l-8 12q-23 35 -58 55.5t-60 20.5q-31 0 -59 -20.5t-48 -51t-32.5 -69.5t-12.5 -76v-16zM1182 354q0 -92 40 -137t95 -45q43 2 78 31.5t35 89.5q0 57 -33 120.5t-119 102.5l-55 25q-14 -37 -27.5 -88.5 t-13.5 -98.5zM1397 762l98 -189q37 -72 80 -101.5t82 -29.5q47 0 90 43t43 136q0 57 -18.5 98t-47 66.5t-65.5 38t-74 12.5t-76 -11.5t-86 -44.5z" />
<glyph unicode="0" horiz-adv-x="2121" d="M-45 1079q137 -45 283.5 -106.5t287 -135t266.5 -159.5t224 -180q78 -76 144.5 -167t109.5 -194q6 -2 20 -2q80 0 183.5 35t195.5 96.5t155.5 147.5t63.5 188q0 70 -20.5 123t-54 89t-78.5 53.5t-97 17.5q-27 0 -55.5 -10.5t-53 -32t-39.5 -53t-15 -72.5q0 -74 32.5 -117 t94.5 -43q41 0 61 27.5t20 60.5q0 35 -27.5 61.5t-60.5 26.5q-14 0 -21 -5t-13.5 -12t-11.5 -12.5t-15 -5.5q-14 0 -14 19q0 35 21.5 50t53.5 15q20 0 44 -7t44.5 -23.5t35 -43t14.5 -67.5q0 -37 -14.5 -68.5t-38 -54t-54.5 -35t-63 -12.5q-53 0 -98.5 20.5t-78 56.5t-52 82 t-19.5 97q0 78 33.5 135.5t88 95t123 56t136.5 18.5q78 0 154.5 -29.5t137 -88t97.5 -145.5t37 -204q0 -129 -58.5 -233.5t-160 -178t-236.5 -113.5t-291 -40h-33.5t-33.5 4q10 -57 10 -106q0 -115 -86 -180.5t-225 -65.5q-129 0 -265.5 28.5t-262.5 113.5t-236.5 239.5 t-186.5 404.5l-84 275l-2 2zM-33 1020l82 -291q125 -80 245 -177t254 -184t291.5 -151.5t358.5 -77.5q-29 74 -77 143.5t-103 129.5q-82 84 -201 171t-259 166.5t-291.5 149.5t-299.5 121zM70 643l47 -139q72 -213 162 -350.5t193 -216t220 -108.5t240 -30q84 0 141 13.5 t93 37t51.5 55.5t15.5 70v18.5t-4 16.5q-135 14 -251 51t-217.5 88.5t-190.5 115t-172 129t-162.5 131t-161.5 122.5z" />
<glyph unicode="1" horiz-adv-x="2084" d="M37 569q0 111 62.5 216.5t182 187.5t294 132t395.5 50q57 0 124.5 -9t130 -22.5t114 -28t75.5 -22.5l90 -29l74 25q123 41 245 62.5t261 31.5v-110h-41q-96 0 -199.5 -13.5t-199.5 -38.5v-4q43 -16 99 -33.5t115.5 -34t118 -31.5t107.5 -26v-61l-33 -18 q-23 -12 -81 -60.5t-144 -100.5t-194.5 -94t-229.5 -42q-141 0 -209 46t-68 99q0 96 53.5 173t159.5 144l45 29l-26 6q-25 6 -71 16.5t-107.5 21.5t-134 18.5t-150.5 7.5q-217 0 -370.5 -43t-252 -113t-142.5 -157t-44 -175q0 -80 32 -138t80 -98t107.5 -59.5t114.5 -19.5 q59 0 128.5 17.5t129.5 52.5q12 8 22.5 5t10.5 -16q0 -16 -25 -32q-53 -33 -129 -54.5t-156 -21.5q-78 0 -144.5 27.5t-115.5 76.5t-76.5 116t-27.5 144zM1163 653q0 -20 13.5 -41.5t42 -39t76.5 -29t116 -11.5q49 0 113.5 14.5t140.5 47.5t160 83t172 124l26 24 q-137 29 -261 61t-246 66l-23 -8q-57 -20 -115.5 -54t-106.5 -74t-78 -82t-30 -81z" />
<glyph unicode="2" horiz-adv-x="1818" d="M0 811v61q53 41 106.5 82t108.5 80q-102 18 -166 19h-49v110h90q84 0 150.5 -6t132.5 -22q147 86 305 139t336 53q152 0 259 -33.5t183 -130.5h27q45 0 88 -16.5t76.5 -44t55 -65.5t21.5 -79q0 -43 -34.5 -89t-99 -86t-154.5 -70.5t-203 -46.5q137 -98 272 -203t246 -203 l68 -59v-99q-43 -55 -71 -139t-28 -188q0 -111 28 -195t71 -133v-78q-41 33 -73 80t-53.5 100.5t-33.5 109.5t-12 110q0 72 24.5 157.5t85.5 184.5l29 45l-41 37q-158 141 -311.5 255.5t-300.5 204.5q-59 -6 -117 -6q-70 0 -150 7.5t-177 21.5t-216 36.5t-264 53.5zM61 854 q94 -16 213 -33.5t236 -31t219 -22.5t168 -9h47v4q-197 102 -365.5 165.5t-302.5 94.5q-55 -39 -108 -80t-107 -88zM426 1118q53 -14 115.5 -38.5t140.5 -61.5q66 -31 172.5 -96.5t235.5 -157.5q178 8 293.5 29.5t183 50t94.5 60.5t27 63q0 37 -18.5 66.5t-48.5 50 t-65.5 31.5t-68.5 11h-12q8 -20 10 -40.5t2 -36.5q0 -39 -14.5 -72t-39 -57.5t-56 -38t-68.5 -13.5q-39 0 -72 22.5t-33 72.5q0 33 19.5 64.5t49.5 57t64.5 44t65.5 24.5q-59 78 -156.5 107.5t-218.5 29.5q-170 0 -317.5 -46t-284.5 -126zM1241 958q0 -25 19.5 -45t52.5 -20 q20 0 44.5 10t45 29.5t34 46.5t13.5 59q0 41 -10 60.5t-27 19.5q-20 0 -49 -14t-56.5 -37t-47 -51.5t-19.5 -57.5z" />
<glyph unicode="3" horiz-adv-x="1818" d="M0 102v99l68 59q111 98 246 202.5t272 203.5q-113 16 -203 46.5t-154.5 70.5t-99.5 86t-35 89q0 41 21.5 79t55.5 65.5t77 44t88 16.5h26q76 96 183.5 130t259.5 34q178 0 335.5 -53t305.5 -139q66 16 132.5 22t150.5 6h90v-110h-50q-66 0 -165 -19q55 -39 108 -80 t107 -82v-61l-209 -45q-145 -31 -264 -53.5t-216.5 -36.5t-177.5 -21.5t-149 -7.5q-59 0 -117 6q-147 -90 -301 -204.5t-311 -255.5l-41 -37l28 -45q61 -98 86 -184.5t25 -157.5q0 -53 -12.5 -109.5t-34 -110t-54 -100.5t-71.5 -80v78q43 49 70.5 133t27.5 195 q0 104 -27.5 188t-70.5 139zM131 967q0 -31 26.5 -63t94 -60.5t183.5 -50t294 -29.5q129 92 235.5 157.5t172.5 96.5q78 37 140 61.5t116 38.5q-137 80 -284.5 126t-317.5 46q-121 0 -218.5 -29.5t-156.5 -107.5q31 -6 65.5 -24.5t64 -44t49 -57.5t19.5 -64q0 -49 -32.5 -72 t-71.5 -23q-37 0 -68.5 13.5t-56.5 38t-39 57.5t-14 72q0 16 2 36.5t10 40.5h-12q-35 0 -70 -11t-64.5 -31.5t-48 -50t-18.5 -66.5zM369 1038q0 -33 13 -59.5t33.5 -46t45 -29.5t45.5 -10q33 0 52.5 20t19.5 45q0 29 -19.5 57.5t-47.5 51.5t-56.5 37t-48.5 14 q-16 0 -26.5 -19.5t-10.5 -60.5zM874 758h48q63 0 166.5 9t220 22.5t235.5 31t213 33.5q-53 47 -106.5 88t-108.5 80q-133 -31 -302 -94.5t-366 -165.5v-4z" />
<glyph unicode="4" horiz-adv-x="2084" d="M0 811v61q49 10 107.5 24.5t117 31t111.5 33t90 32.5q-86 31 -187.5 45.5t-197.5 14.5h-41v110q139 -10 264 -34.5t260 -65.5l60 -19l86 29q29 10 80 24.5t112.5 27t127 21.5t124.5 9q221 0 394 -50t293 -132t183.5 -187.5t63.5 -216.5q0 -78 -27.5 -144.5t-77 -115.5 t-116 -76.5t-144.5 -27.5q-80 0 -155.5 21.5t-128.5 54.5q-25 16 -25 32q0 12 10.5 15.5t22.5 -4.5q59 -35 129 -52.5t129 -17.5q55 0 114.5 19.5t107.5 59.5t80 98t32 138q0 88 -44 175t-142.5 157t-252 113t-370.5 43q-156 0 -276.5 -21.5t-186.5 -44.5l-31 -10l58 -43 q117 -88 160.5 -156.5t43.5 -140.5q0 -53 -67.5 -99t-208.5 -46q-121 0 -229.5 42t-194.5 94t-145.5 100t-79.5 61zM61 825l27 -24q88 -74 172 -124t160 -83t140.5 -47.5t113.5 -14.5q68 0 116 11.5t76.5 29t42 39t13.5 41.5q0 25 -12.5 55.5t-47.5 65.5t-96 75t-158 85 l-39 18q-123 -35 -246.5 -66.5t-261.5 -60.5z" />
<glyph unicode="5" d="M33 1294q0 92 45 167t131 128t210 82t281 29q197 0 362 -39t310.5 -99.5t273.5 -137t250.5 -152.5t242.5 -143.5t249 -110.5v-55q-127 39 -247 97t-242.5 123.5t-254 132t-281 119t-323.5 85t-381 32.5q-156 0 -263 -20.5t-174.5 -55t-97.5 -82.5t-30 -104q0 -70 41 -130 t110.5 -111.5t160 -91t187.5 -67.5t195.5 -42t182.5 -14h14q-29 39 -42 96t-13 104q0 76 26.5 123t64.5 73.5t80 37t75 10.5q45 0 103 -14.5t108.5 -49t85 -91t34.5 -138.5q0 -70 -23.5 -126t-84.5 -111l-25 -23l41 -14q39 -14 111.5 -29.5t165 -29t199 -21.5t214.5 -8 q152 0 283 26v-63q-133 -12 -287 -13q-127 0 -247.5 10.5t-227 27t-196 37t-156.5 40.5l-62 19l-4 -5l62 -47q39 -31 138 -82t246.5 -111.5t334 -124t399.5 -116.5v-102q-211 57 -401.5 131t-352 152.5t-289.5 155.5t-215 142l-40 31l-291 57q-375 72 -570.5 207t-195.5 299 zM979 1020q0 -43 16.5 -87t42.5 -73l19 -20h26q143 0 210 49t67 139q0 57 -23.5 95t-56.5 61.5t-66.5 34t-52.5 10.5q-16 0 -47 -7.5t-60.5 -30t-52 -63.5t-22.5 -108z" />
<glyph unicode="6" horiz-adv-x="1970" d="M0 119v104q229 -59 479 -98t506 -39t506 39t479 98v-104q-229 -66 -477 -105t-508 -39t-508 39t-477 105zM0 586v63q119 20 224.5 55t192.5 79t153.5 93.5t109.5 98.5l14 16l-4 4q-70 -43 -157 -66.5t-175 -23.5q-98 0 -186 14.5t-172 43.5v53q82 -29 168 -45.5 t180 -16.5q205 0 317.5 83t112.5 243q0 59 -25.5 121.5t-73.5 113t-114.5 83t-148.5 32.5q-45 0 -87 -17.5t-74 -47t-51.5 -67.5t-19.5 -77t20.5 -72.5t52.5 -59t71 -40t73 -14.5q35 0 61.5 11t44 25.5t27 30t9.5 23.5q0 16 16 16q20 0 21 -18q0 -31 -18.5 -53.5t-44 -39 t-56.5 -24.5t-55 -8q-41 0 -87.5 18.5t-84 49t-62.5 71.5t-25 88q0 72 33 123t82 83t107.5 46.5t107.5 14.5q104 0 192.5 -37t154 -101.5t102.5 -152.5t37 -189q0 -109 -51.5 -212t-165 -188t-298 -145.5t-448.5 -80.5zM1008 1212q0 100 36.5 188.5t102 153t154 101.5 t192.5 37q49 0 107.5 -14.5t107.5 -46.5t82 -83t33 -123q0 -47 -24.5 -88t-62.5 -71.5t-84 -49t-87 -18.5q-25 0 -55.5 8t-56.5 24.5t-44 39t-18 53.5q0 18 20 18q16 0 16 -16q0 -8 9.5 -23.5t27 -30t44 -25.5t61.5 -11t73.5 14.5t70.5 40t52.5 59t20.5 72.5t-19.5 77 t-51.5 67.5t-74 47t-87 17.5q-82 0 -148.5 -32.5t-114.5 -83t-73.5 -113t-25.5 -121.5q0 -160 112.5 -243t317.5 -83q94 0 180 16.5t168 45.5v-53q-84 -29 -172 -43.5t-186 -14.5q-88 0 -175 23.5t-157 66.5l-4 -4l14 -16q43 -49 109.5 -98.5t153.5 -93.5t191.5 -78.5 t225.5 -55.5v-63q-264 20 -448.5 80.5t-298 145.5t-164.5 188.5t-51 211.5z" />
<glyph unicode="7" d="M0 119v102q211 53 398.5 116.5t335 124t246.5 112t138 81.5l62 47l-4 5l-62 -19q-68 -20 -157 -40.5t-195.5 -37t-227 -27t-247.5 -10.5q-156 0 -287 13v63q131 -27 283 -26q106 0 213.5 8t199.5 21.5t165 28.5t112 30l41 14l-25 23q-61 55 -84.5 111t-23.5 126 q0 82 34.5 138.5t85 91t107.5 49t104 14.5q33 0 75 -10.5t80 -37t64.5 -73.5t26.5 -123q0 -47 -13 -104.5t-42 -95.5h14q84 0 182.5 14t195.5 42t187.5 67.5t160 91t110.5 112t41 129.5q0 55 -30 103.5t-97.5 83t-175 55t-262.5 20.5q-209 0 -382 -32.5t-323 -85t-281 -119 t-253.5 -132t-242.5 -124t-247 -96.5v55q129 43 249 110.5t242.5 143.5t250.5 152.5t273.5 137t310.5 99.5t362 39q156 0 279.5 -29t209.5 -82t132 -128t46 -167q0 -164 -195.5 -299t-570.5 -207l-291 -57l-41 -31q-86 -66 -215 -142.5t-289.5 -155t-351 -152.5t-401.5 -131 zM1028 1028q0 -90 66.5 -139t210.5 -49h26l19 20q27 29 43 73t16 87q0 68 -22.5 108.5t-52 63t-60.5 30t-47 7.5q-18 0 -52 -10.5t-67 -34t-56.5 -61.5t-23.5 -95z" />
<glyph unicode="8" horiz-adv-x="2121" d="M0 565q0 117 37 204t97.5 145.5t137 88t154.5 29.5q68 0 136.5 -18.5t122.5 -56t88 -95t34 -135.5q0 -51 -19.5 -97t-52.5 -82t-79 -56.5t-97 -20.5q-33 0 -63.5 12.5t-54 35t-38 54t-14.5 68.5q0 41 14.5 67.5t35 43t44 23.5t43.5 7q33 0 54.5 -15t21.5 -50 q0 -18 -14 -19q-10 0 -15.5 5.5t-11.5 12.5t-13 12t-22 5q-33 0 -60.5 -26.5t-27.5 -61.5q0 -33 20.5 -60.5t61.5 -27.5q61 0 94 43t33 117q0 41 -15.5 72.5t-40 53t-53 32t-55.5 10.5q-51 0 -96 -17.5t-79 -53.5t-54.5 -89t-20.5 -123q0 -102 63.5 -188t156 -147.5 t196 -96.5t182.5 -35q14 0 21 2q43 102 109.5 193.5t144.5 167.5q98 94 224 180t266.5 159.5t286 135t284.5 106.5l-17 -364l-2 -2l-84 -275q-78 -250 -187.5 -404.5t-235 -239.5t-262 -113.5t-265.5 -28.5q-139 0 -225 65.5t-86 180.5q0 49 10 106q-16 -4 -33.5 -4h-34.5 q-156 0 -291 40t-236 113.5t-159.5 178t-58.5 233.5zM889 -6v-19q0 -39 15.5 -70.5t51 -55t93 -37t141.5 -13.5q123 0 239.5 30t220 108.5t193.5 216t162 350.5l47 139l-4 4q-82 -57 -162 -122.5t-163 -131t-172 -129t-190 -115t-217 -88t-251 -51.5q-4 -8 -4 -16zM924 139 q201 12 358.5 77t291.5 152t254 184t245 177l81 291q-147 -51 -299.5 -121t-292 -149.5t-258 -166.5t-200.5 -171q-55 -59 -103.5 -129t-76.5 -144z" />
<glyph unicode="9" horiz-adv-x="1290" d="M29 715l16 366h4q33 96 75 200.5t108.5 191t166 142.5t246.5 56t246.5 -56t166 -142.5t107.5 -190.5t76 -201h4l17 -366q-129 80 -275.5 129t-327.5 49q-201 0 -351 -49t-279 -129zM49 793q133 74 276.5 117.5t319.5 43.5t319.5 -44t276.5 -117l-86 260 q-137 47 -268 70.5t-242 23.5t-242 -23.5t-268 -70.5zM162 1112q133 41 257 62.5t220 21.5q104 0 230 -21.5t259 -62.5q-37 92 -80.5 164t-101 121t-131.5 75.5t-170 26.5t-170 -26.5t-131 -75.5t-101 -121t-81 -164z" />
<glyph unicode=":" horiz-adv-x="2007" d="M94 772q0 16 9.5 24.5t25.5 14.5l152 57q-4 12 -6.5 28.5t-2.5 33.5q0 86 35 158.5t84 126t101.5 87t87.5 44.5l151 49q10 2 26.5 -35t31 -90t24.5 -108.5t10 -86.5q0 -43 -8 -75.5t-18 -59.5t-20.5 -49.5t-10.5 -46.5q0 -31 16.5 -49.5t42.5 -18.5q27 0 42.5 18.5 t15.5 41.5q0 41 -4.5 79.5t-4.5 65.5q0 86 40 162t90.5 134t95.5 92t55 34q8 0 17.5 -14.5t17.5 -35t14 -41t10 -32.5q39 29 129.5 56.5t217.5 27.5h77q53 0 113.5 21.5t93.5 50.5l68 -33q-16 -18 -29.5 -43t-24 -62.5t-15.5 -92t-5 -128.5q0 -72 -16.5 -148.5t-57.5 -158.5 l-10 -20l100 -33q6 -4 12.5 -11.5t6.5 -17.5q0 -6 -34 -49t-91 -91t-131 -87t-156 -39q-23 0 -39 2t-29.5 4t-28.5 4t-36 2q-39 0 -57.5 -18.5t-18.5 -40.5q0 -23 18.5 -41.5t47.5 -18.5q23 0 46.5 7.5t51.5 17.5q29 10 68 17.5t90 7.5q41 0 87 -7.5t83 -21.5 q45 -18 68.5 -27.5t35 -14.5t13.5 -8t2 -5q0 -55 -32 -135t-89 -154t-140 -125t-184 -51h-52t-34 4l-45 -119q-10 -25 -19 -45.5t-22 -20.5q-8 0 -18 5.5t-27.5 12.5t-46.5 13t-74 6q-94 2 -162.5 24.5t-114.5 59.5t-68.5 84t-22.5 94q0 29 15 50.5t33.5 42t34 43t15.5 53.5 q0 14 -11.5 29.5t-43.5 15.5q-37 0 -97.5 -43t-128.5 -109q-43 -41 -89 -93t-88 -105.5t-74.5 -102.5t-45.5 -80q-31 -4 -60.5 -2t-57.5 15q-12 29 -16.5 52.5t-0.5 57.5l23 15q25 16 67.5 49t93 74t102.5 88t95 90q45 45 74 78.5t45 58.5t22.5 43t6.5 35q0 18 -11.5 35.5 t-35.5 17.5q-33 0 -52.5 -14.5t-38.5 -32.5q-20 -16 -43.5 -32.5t-66.5 -16.5q-37 0 -80 15t-80 55t-62.5 111t-27.5 179q-2 57 -7 87t-11.5 43.5t-11.5 19.5t-5 16zM209 758q8 -35 8 -72v-72q0 -25 -1 -43t-1 -41q0 -49 13.5 -85.5t34 -61.5t44 -38t41.5 -13 q27 0 53.5 18.5t55.5 42.5q29 23 63.5 42.5t77.5 19.5t72.5 -30t29.5 -83q0 -47 -20.5 -89t-52.5 -83l4 -4l45 31q39 23 69.5 34t61.5 11q66 0 90.5 -29t24.5 -76q0 -37 -19.5 -71.5t-42.5 -65.5t-42 -56.5t-19 -47.5q0 -14 11 -37t32.5 -44.5t53.5 -37t73 -15.5 q63 0 102 4.5t74 4.5q20 0 40.5 -3.5t43.5 -13.5q16 37 28.5 84t14.5 96q68 -45 141 -45q125 0 204 75t118 241l6 26l-27 7q-49 12 -73.5 21t-41 16.5t-33 11.5t-48.5 4q-29 0 -53.5 -5t-47.5 -14q-23 -6 -45 -12t-49 -6q-45 0 -72.5 9t-43 25.5t-21.5 39t-6 51.5 q0 51 21.5 77.5t88.5 26.5h129q43 0 91.5 11.5t92.5 35t82.5 57.5t67.5 77l6 10l-102 49l22 41q41 72 63.5 166t22.5 221v154q-23 -2 -44 -5.5t-50 -5.5t-66.5 -3t-91.5 -1q-104 0 -163.5 -16.5t-92 -35.5t-46 -35.5t-25.5 -16.5q-10 0 -19 18l-37 90l-36 -39 q-43 -47 -74 -82.5t-49.5 -71.5t-26.5 -78t-8 -99q0 -29 4 -62t4 -65q0 -51 -30.5 -73t-77.5 -22q-119 0 -119 152q0 35 5 56.5t11 41.5q6 18 11.5 38t5.5 44q0 23 -7.5 49.5t-17.5 55t-19.5 56.5t-13.5 50l-4 25q-74 -16 -136.5 -41t-108.5 -64t-71.5 -91t-25.5 -122 q0 -31 4 -47t8 -28.5t8.5 -24.5t4.5 -33q0 -27 -47 -26q-66 0 -115 -35zM508 872q0 39 9 95.5t26 103.5l37 19l4 -9v-10q0 -8 -13.5 -52t-13.5 -104q0 -98 26.5 -162.5t61.5 -111.5t67.5 -81t45.5 -71l6 -20l-10 2q-25 2 -67 36t-82 89t-68.5 127t-28.5 149zM940 299v8 l10 -4q20 -6 58.5 -39t91.5 -69.5t121.5 -65.5t150.5 -29q23 0 50.5 5.5t52 11.5t44 11t27.5 5q14 0 15 -10q0 -12 -10.5 -24.5t-35 -22.5t-66.5 -17.5t-103 -7.5q-88 0 -161 31t-127 73t-85 83t-33 61zM965 541l10 10q68 78 108.5 193.5t40.5 289.5q0 25 3 33t8 8 q12 0 19 -16.5t12 -37t6.5 -38.5t1.5 -25q0 -45 -9.5 -113.5t-44.5 -144.5l-10 -18l4 -4l37 47q35 41 83 90t99 98.5t99.5 94.5t85.5 77q43 37 67.5 58.5t38.5 32t20.5 12.5t12.5 2q2 0 -9.5 -18.5t-32 -46t-48 -63.5t-55 -70t-54 -63.5t-45.5 -45.5l-264 -230l4 -4 q68 29 135.5 48.5t138.5 19.5q78 0 103.5 -15.5t25.5 -27.5q0 -14 -10 -15q-18 0 -31.5 4.5t-52.5 4.5q-219 0 -424 -144l-30 -20l-39 -2z" />
<glyph unicode=";" horiz-adv-x="2007" d="M102 1386l33 68q18 -16 43 -29.5t63 -23.5t92 -15.5t128 -5.5q72 0 148.5 -16t158.5 -57l20 -11l33 101q4 6 11.5 12t17.5 6q6 0 49 -33.5t91 -91t87 -131.5t39 -155q0 -23 -2 -39.5t-4 -29.5t-4 -28.5t-2 -36.5q0 -39 18.5 -57t40.5 -18q23 0 41.5 18t18.5 47 q0 23 -7.5 46.5t-17.5 51.5q-10 29 -17 68t-7 90q0 41 7 87t21 83q18 45 27.5 68.5t14.5 35t7 13.5t6 2q55 0 135.5 -32t154 -89t124.5 -140t51 -183v-52.5t-4 -34.5l119 -45q25 -10 45.5 -19t20.5 -22q0 -8 -5.5 -18t-12.5 -27.5t-13 -46t-6 -73.5q-2 -94 -25.5 -163 t-60.5 -115t-83 -68.5t-93 -22.5q-29 0 -50.5 15.5t-42 34t-43 33.5t-53.5 15q-14 0 -29.5 -11t-15.5 -44q0 -37 43 -97.5t109 -127.5q39 -43 92 -89t106.5 -88t102.5 -75t80 -45q4 -31 2 -60.5t-15 -58.5q-29 -12 -52 -16.5t-58 0.5l-15 22q-16 25 -49 68t-73.5 93t-88 102 t-90.5 95q-45 45 -78.5 74t-58 45.5t-43 22.5t-35.5 6q-18 0 -35.5 -11.5t-17.5 -35.5q0 -33 14.5 -52.5t32.5 -37.5q16 -20 32.5 -44t16.5 -67q0 -37 -15 -80t-55 -79.5t-111 -62.5t-179 -28q-59 -2 -88 -7t-43.5 -11t-19.5 -11.5t-15 -5.5q-16 0 -24.5 9.5t-14.5 25.5 l-57 152q-12 -4 -28.5 -6t-33.5 -2q-86 0 -158.5 34.5t-126 84t-87 101.5t-43.5 87l-50 151q-4 10 34 26.5t91.5 31t108.5 25t86 10.5q43 0 75.5 -8.5t59.5 -18.5t49.5 -20.5t46.5 -10.5q31 0 49.5 16.5t18.5 43.5t-18.5 42t-41.5 15q-41 0 -79.5 -4t-65.5 -4q-86 0 -162 40 t-134 90t-92 95t-34 55q0 8 14.5 17.5t35 17.5t41 14.5t32.5 10.5q-29 39 -56.5 129t-27.5 217v78q0 53 -21.5 113.5t-50.5 92.5zM233 1307q2 -23 5.5 -44.5t5.5 -50t3 -66.5t1 -91q0 -104 16.5 -164t35.5 -92.5t35.5 -46t16.5 -25.5q0 -10 -18 -18l-90 -37l39 -37 q45 -43 81.5 -74t72.5 -49t78 -26.5t99 -8.5q29 0 62 4t65 4q51 0 73 -30.5t22 -77.5q0 -119 -152 -119q-35 0 -56.5 5t-41.5 11q-18 6 -38 11.5t-44 5.5q-23 0 -49.5 -7.5t-55 -17.5t-56.5 -19t-50 -14l-25 -4q14 -74 40 -136t65 -108t91 -72t122 -26q31 0 47 4.5t28.5 8.5 t23.5 8t34 4q27 0 26 -47q0 -66 35 -115q16 4 50 8t53 4q39 0 59.5 -2t65.5 -2q49 0 85.5 13.5t61.5 34t38 43t13 40.5q0 27 -18.5 53.5t-42.5 55.5q-23 29 -41.5 63.5t-18.5 77.5t29 73t82 30q47 0 89 -20.5t83 -53.5l4 4l-31 45q-23 39 -34 69.5t-11 61.5q0 66 29 90.5 t76 24.5q37 0 71.5 -19.5t65.5 -42.5t56.5 -42t47.5 -19q14 0 37 11t44.5 33t37 53.5t15.5 72.5q0 63 -4.5 102t-4.5 74q0 20 3.5 41t13.5 43q-37 16 -84 28.5t-96 14.5q45 68 45 141q0 125 -75 204t-241 118l-26 6l-7 -27q-12 -49 -21 -73.5t-16.5 -41t-11.5 -32.5t-4 -49 q0 -29 6.5 -53.5t12.5 -47.5q8 -23 13 -45t5 -49q0 -45 -9 -72.5t-25.5 -43t-39 -21.5t-51.5 -6q-51 0 -77.5 21.5t-26.5 88.5v130q0 43 -11.5 91t-35 92t-57 83t-77.5 67l-10 6l-49 -102l-41 23q-72 41 -166 63.5t-221 22.5h-154zM348 1198q0 2 18.5 -9t46 -31.5 t63.5 -48.5t70 -55.5t63.5 -54t45.5 -45.5l230 -264l4 4q-29 68 -48.5 135.5t-19.5 139.5q0 78 15.5 103.5t27.5 25.5q14 0 15 -11q0 -18 -4.5 -31.5t-4.5 -51.5q0 -219 144 -424l20 -31v-39l-37 -4l-10 10q-78 68 -193.5 109t-289.5 41q-25 0 -33 3t-8 7q0 12 16.5 19 t37 12.5t38.5 6.5t25 1q45 0 113.5 -9.5t144.5 -43.5l18 -11l4 4l-47 37q-41 35 -90 83t-98.5 99.5t-94.5 99.5t-77 85q-37 43 -58.5 67.5t-32 39t-12.5 20.5t-2 12zM449 121l8 4h10q8 0 52 -13.5t104 -13.5q98 0 162.5 27t111.5 61.5t81 67.5t71 45l20 6l-2 -10 q-4 -25 -37 -67t-88 -82t-127 -68.5t-149 -28.5q-39 0 -95.5 9.5t-103.5 25.5zM1231 481l4 11q6 20 39 58t69.5 91t65.5 121.5t29 150.5q0 23 -5.5 50.5t-11.5 52t-11 44t-5 27.5q0 14 10 15q12 0 24.5 -10.5t23 -35t17.5 -66.5t7 -103q0 -88 -31 -161t-73 -127t-82.5 -85 t-61.5 -33h-8z" />
<glyph unicode="=" horiz-adv-x="1024" />
<glyph unicode="?" horiz-adv-x="2048" d="M0 362v158q160 -133 267.5 -212t180 -120t119.5 -53t86 -12q41 0 83 12t76 38t54.5 67t20.5 98q0 51 -15.5 87t-38 58.5t-51 32.5t-53.5 10q-37 0 -59.5 -12t-35.5 -29.5t-17.5 -36t-4.5 -30.5q0 -14 4.5 -36t4.5 -26q0 -10 -5.5 -19t-23.5 -9q-6 0 -8 2t-6 2 q-6 10 -19.5 39.5t-13.5 70.5q0 37 15 73t44 63.5t70 45t94 17.5q63 0 134 -38t146.5 -96t154.5 -125t158 -125t156.5 -96t151.5 -38q47 0 91 13.5t78 40t53.5 67.5t19.5 94q0 31 -8.5 63.5t-28 60t-49 46t-72.5 18.5q-53 0 -85 -29.5t-32 -78.5q0 -12 5.5 -38t9.5 -42 q-10 -10 -29 -10q-4 0 -12 4t-17.5 16t-16.5 33.5t-7 54.5q0 39 15 76t44 65.5t71 46t97 17.5q43 0 83 -14.5t74 -34t58.5 -40t36.5 -32.5v-158q-4 2 -13.5 11.5t-20.5 17.5t-20 15.5t-12 7.5q-6 0 -6 -11q0 -23 3 -43t3 -43q0 -88 -30.5 -148t-78.5 -98t-106.5 -54.5 t-115.5 -16.5q-66 0 -124.5 19.5t-135 67.5t-182 130t-261.5 205l-4 -4q10 -29 12 -54.5t2 -50.5q0 -90 -32.5 -150.5t-81.5 -96t-104.5 -51t-100.5 -15.5q-49 0 -101.5 11.5t-124 49t-171 109.5t-242.5 192zM0 768v133q45 -8 95 -42t94 -76t78 -83t50 -59q31 43 70 93 t98.5 95t143.5 75t200 30q57 0 118 -9.5t125.5 -40t132 -90t136.5 -159.5q92 164 223.5 231.5t288.5 67.5q53 0 109.5 -7t85.5 -26v-133q-16 10 -76.5 35.5t-175.5 25.5q-86 0 -157.5 -31.5t-128 -78.5t-97.5 -104.5t-67 -106.5q-39 45 -99.5 100.5t-134.5 104.5t-159 82.5 t-171 33.5q-90 0 -162.5 -30.5t-129 -77.5t-96.5 -103.5t-66 -109.5q-43 41 -94.5 85t-98.5 82t-84 63.5t-51 29.5z" />
<glyph unicode="A" horiz-adv-x="1593" d="M0 25h1593v-50h-1593v50z" />
<glyph unicode="B" horiz-adv-x="2240" d="M0 25h692q8 41 32 74.5t56.5 58t72.5 38t81 13.5q78 0 168 -44t184 -165l23 -29l22 39q47 82 94.5 130t95.5 75t97 35t102 8t109.5 -14.5t106 -44t85 -73.5t45.5 -101h158v-25q0 -143 -35 -247.5t-96 -172t-143 -100.5t-176 -33q-102 0 -172 28.5t-119 75t-83 106.5 t-63.5 121.5t-59.5 122t-72 106.5t-101.5 75t-145.5 29q-66 0 -113.5 -19.5t-76.5 -66.5h303q-4 -37 -22.5 -65t-44.5 -48q-55 -39 -127 -39q-59 0 -109 27q-49 31 -76 75h-692v50zM768 -25q6 -25 25 -41q18 -12 51 -12q27 0 49 12q20 16 31 41h-156zM1370 -104 q0 -80 34 -144.5t89 -111t126 -71t144 -24.5q80 0 152 22.5t127 74t91 133.5t42 200h-102q-23 -102 -78.5 -147t-122.5 -45q-86 0 -153.5 56.5t-80.5 185.5h373q-10 49 -35.5 83.5t-64.5 57t-86 33t-99 10.5q-96 0 -163.5 -28.5t-110.5 -75t-62.5 -101.5t-19.5 -108z M1749 -25q18 -78 59 -104.5t88 -26.5q43 0 77 38t38 93h-262z" />
<glyph unicode="C" horiz-adv-x="2240" d="M16 0v25h158q10 57 45 101t84 73.5t106.5 44t110.5 14.5q51 0 101.5 -8t98.5 -35t95 -75t94 -130l23 -39l22 29q94 121 184.5 165t168.5 44q41 0 80.5 -13.5t72.5 -38t56.5 -58t31.5 -74.5h693v-50h-693q-27 -45 -75 -75q-49 -27 -109 -27q-72 0 -128 39t-67 113h304 q-29 47 -77 66.5t-114 19.5q-86 0 -145.5 -29t-101.5 -75t-71.5 -106.5t-59.5 -122t-63.5 -121.5t-82.5 -106.5t-120 -75t-171 -28.5q-94 0 -176 33t-143.5 100.5t-96.5 172t-35 247.5zM66 -25q6 -119 40.5 -200.5t90 -133t128 -74t152.5 -22.5q74 0 144.5 24.5t126 71 t89 111t33.5 144.5q0 53 -19.5 108t-62.5 101.5t-110.5 75t-163.5 28.5q-51 0 -98 -10.5t-86 -33t-65.5 -57t-35.5 -83.5h373q-12 -129 -79.5 -185.5t-153.5 -56.5q-68 0 -123.5 45t-77.5 147h-102zM229 -25q4 -55 38 -93t77 -38q47 0 88 27t60 104h-263zM1317 -25 q10 -25 31 -41q20 -12 49 -12q63 0 76 53h-156z" />
<glyph unicode="D" horiz-adv-x="2084" d="M-12 0q0 31 21.5 73t64.5 78.5t109.5 63.5t156.5 27q109 0 201 -50.5t179 -124t175 -159.5t187.5 -160t215.5 -120q106 -42 238 -42h23q119 4 207.5 38t149 86t90.5 119t30 138v8h-1010q6 100 56.5 178t126 130.5t168.5 79t186 26.5q137 0 237.5 -32.5t167 -88t98 -125 t31.5 -143.5q0 -76 -30.5 -158t-97 -149.5t-171 -111.5t-254.5 -44q-141 0 -251.5 45t-205 112.5t-177.5 145.5t-168 145.5t-179 112.5t-209 45q-98 0 -165.5 -31.5t-102.5 -86.5h365q-12 -115 -63.5 -170.5t-151.5 -55.5q-61 0 -107.5 19.5t-77.5 49.5t-47 64.5t-16 67.5z M74 -25q4 -51 36.5 -76.5t82.5 -25.5q55 0 93 24.5t54 77.5h-266zM1235 25h801q-16 76 -55 130t-94.5 90t-122 53t-140.5 17q-98 0 -168 -31.5t-117 -77.5t-72.5 -96.5t-31.5 -84.5z" />
<glyph unicode="E" horiz-adv-x="1818" d="M0 -25v50h111q8 115 73.5 215t173 173.5t250 116.5t301.5 43q160 0 302.5 -43t250 -116.5t173 -174t73.5 -214.5h111v-50h-111q-6 -117 -70.5 -218t-172 -177t-251 -119t-305.5 -43t-305 43t-250.5 119t-172 177.5t-70.5 217.5h-111zM197 -25q10 -84 69.5 -155.5 t155.5 -125.5t221 -85t266 -31t266 31t221.5 85t156 125.5t69.5 155.5h-1425zM197 25h1425q-4 86 -61.5 161.5t-153.5 131t-224 88t-274 32.5q-145 0 -273 -32.5t-224.5 -88t-153.5 -131t-61 -161.5z" />
<glyph unicode="F" horiz-adv-x="2084" d="M-12 0q0 74 31.5 143.5t98 125t167 88t237.5 32.5q92 0 185.5 -26.5t169 -79t126 -130t56.5 -178.5h-1010v-8q0 -72 30 -138.5t90 -118.5t149.5 -86t207.5 -38h23q131 0 238 42q116 46 215.5 120t187.5 160t175 159.5t179 124t201 50.5q90 0 156.5 -27t109.5 -63.5 t64.5 -78.5t21.5 -73q0 -33 -16.5 -67.5t-47 -64.5t-76.5 -49.5t-108 -19.5q-100 0 -151 55.5t-64 170.5h365q-35 55 -102.5 86.5t-165.5 31.5q-115 0 -209.5 -45t-179.5 -112.5t-167.5 -145.5t-177 -145.5t-205 -112.5t-251.5 -45q-150 0 -254.5 44t-171 111.5t-97 149.5 t-30.5 158zM49 25h801q-6 35 -31.5 85t-73 96t-117 77.5t-167.5 31.5q-74 0 -140.5 -17t-122 -53t-94 -90.5t-55.5 -129.5zM1745 -25q16 -53 54 -77.5t93 -24.5q49 0 82 25.5t37 76.5h-266z" />
<glyph unicode="G" horiz-adv-x="1933" d="M12 365q0 78 27 139t67.5 104t92 65.5t100.5 22.5q68 0 116 -22.5t87 -56t70.5 -74.5t68.5 -78q35 -35 75 -64.5t68 -46.5q70 145 70 330v82h580v-86q0 -102 19.5 -185t53.5 -149q125 82 228.5 231.5t181.5 383.5l16 49v-336q-63 -111 -163.5 -214.5t-229.5 -168.5 q66 -98 165 -145.5t210 -47.5h18v-123h-8q-72 0 -136.5 22.5t-122.5 61.5t-106.5 90.5t-84.5 108.5q-145 -70 -299 -70q-78 0 -177.5 25t-189.5 72q-31 -55 -73 -107.5t-94 -91.5t-113.5 -62.5t-131.5 -23.5q-49 0 -115.5 21.5t-126 66.5t-101.5 113.5t-42 163.5zM135 354 q0 -72 24.5 -126t63.5 -91t89 -56.5t100 -19.5q102 0 196 68t154 182q-47 29 -83 54.5t-73 64.5l-39 41v-35q-16 -78 -69.5 -120t-104.5 -42q-59 0 -103 37t-44 86q0 53 28.5 85t67.5 38q-27 -25 -43 -47t-16 -51q0 -41 25.5 -63.5t56.5 -22.5q35 0 69.5 28.5t34.5 90.5 q0 43 -41 87t-121 44q-27 0 -56.5 -10.5t-55 -37t-43 -71.5t-17.5 -113zM831 328q70 -41 154 -65.5t168 -24.5q76 0 148.5 16t142.5 53q-43 72 -65.5 145.5t-22.5 137.5v16h-453v-8q0 -57 -18.5 -127t-53.5 -143z" />
<glyph unicode="H" horiz-adv-x="1933" d="M0 -25v123h18q111 0 210.5 47.5t164.5 145.5q-129 66 -229.5 169t-163.5 214v336l16 -49q78 -233 181.5 -383t228.5 -232q35 66 54.5 149t19.5 185v86h579v-82q0 -184 70 -330q29 16 68.5 46t74.5 65q37 37 69 78t70.5 74.5t87 56t115.5 22.5q49 0 100.5 -22.5 t92.5 -65.5t67.5 -104.5t26.5 -138.5q0 -94 -42 -163t-101.5 -114t-126 -66.5t-115.5 -21.5q-70 0 -131.5 23.5t-113.5 62.5t-94 91t-73 108q-90 -47 -189 -72t-177 -25q-154 0 -299 70q-37 -57 -85 -108.5t-106.5 -90.5t-124 -61.5t-135.5 -22.5h-8zM489 307 q70 -37 143 -53t148 -16q84 0 168 24.5t154 65.5q-35 74 -53.5 143.5t-18.5 126.5v8h-452v-16q0 -63 -23 -137t-66 -146zM1171 311q59 -115 153.5 -182.5t197.5 -67.5q49 0 99 19.5t89 56.5t63.5 91t24.5 126q0 68 -17.5 113t-43 71.5t-55 37t-56.5 10.5q-80 0 -121 -44 t-41 -87q0 -61 35 -90t70 -29q31 0 56.5 22.5t25.5 63.5q0 29 -16.5 51.5t-43.5 46.5q39 -6 68 -37.5t29 -85.5q0 -49 -44.5 -86t-103.5 -37q-27 0 -53.5 10.5t-51 31t-43 51t-26.5 69.5v35l-39 -41q-37 -39 -72.5 -64.5t-83.5 -54.5z" />
<glyph unicode="I" d="M6 426q0 88 28.5 165t93.5 135t166 92t249 34q125 0 224 -29.5t183 -77.5q72 66 174.5 109t251.5 43q115 0 197 -27.5t134 -69.5t75.5 -91.5t23.5 -92.5q0 -41 -18.5 -89t-52 -95t-81.5 -91t-110 -77q72 -47 154 -73.5t182 -26.5q121 0 207 26.5t140 71.5t80 102.5 t26 118.5q0 29 -13.5 51.5t-32 38t-39 22.5t-34.5 7q-16 0 -16 10q0 14 16 15q70 0 119 -44t49 -137q0 -80 -35 -149.5t-98.5 -120.5t-155.5 -80.5t-205 -29.5q-125 0 -225 46t-193 117q-33 -16 -73 -26q104 -84 228 -137.5t296 -53.5q98 0 160.5 16.5t99.5 37t55.5 37 t26.5 16.5q10 0 10 -10q0 -12 -21.5 -35t-66.5 -44.5t-113.5 -38t-162.5 -16.5q-170 0 -303 62.5t-248 155.5q-59 -12 -123 -13q-92 0 -164 16.5t-130 43t-104 61.5t-87 74q-84 -143 -190.5 -214t-225.5 -71q-49 0 -106.5 14.5t-106.5 52.5t-82 102.5t-33 166.5zM129 530 q0 -59 22.5 -106t60.5 -81t89 -51.5t109 -17.5q98 0 163.5 44t118.5 110q-43 43 -86 84t-92 71.5t-109.5 50t-136.5 19.5t-107.5 -31.5t-31.5 -91.5zM233 727q100 -6 174 -30.5t131.5 -59.5t102.5 -76t88 -84q31 41 61.5 84t65.5 84q-86 63 -188.5 104.5t-206.5 41.5 q-115 0 -228 -60v-4zM709 782q92 -45 172 -108q6 10 13 17.5t17 17.5q-47 27 -96 47t-102 30zM782 424q39 -37 82 -69.5t98.5 -58.5t124 -40t158.5 -14h26.5t26.5 4q-102 88 -195 182t-192 172q-37 -41 -68.5 -86t-60.5 -90zM938 629q119 -94 212 -192.5t191 -184.5 q20 4 39 7t39 9q-55 47 -108.5 99.5t-106.5 104.5t-108.5 101.5t-114.5 90.5q-23 -14 -43 -35zM1026 696q66 -45 124 -97t114.5 -106.5t113 -104.5t117.5 -93q94 41 153.5 105.5t59.5 140.5q0 33 -20.5 75.5t-64.5 80.5t-114 63.5t-166 25.5q-104 0 -181 -24.5t-136 -65.5z " />
<glyph unicode="J" d="M6 446q0 92 49 136.5t119 44.5q16 0 16 -15q0 -10 -16 -10q-14 0 -34.5 -7t-39 -22.5t-32 -38t-13.5 -51.5q0 -61 25.5 -118.5t80 -102.5t140.5 -71.5t207 -26.5q100 0 182 26.5t154 73.5q-61 33 -110.5 77t-83.5 91t-51 95t-17 89q0 43 23.5 92.5t75.5 91.5t134 69.5 t197 27.5q150 0 252 -43t174 -109q84 47 183 77t224 30q147 0 248.5 -34t166 -92t93.5 -135t29 -165q0 -102 -33 -166.5t-82 -102.5t-106.5 -52.5t-106.5 -14.5q-119 0 -225.5 70.5t-190.5 214.5q-41 -39 -87 -74t-104 -61.5t-130 -43t-164 -16.5q-66 0 -123 13 q-115 -92 -248 -155t-303 -63q-94 0 -162.5 16.5t-113.5 38t-66.5 44t-21.5 35.5q0 10 10 10q8 0 26.5 -16.5t55.5 -37t99.5 -37t160.5 -16.5q172 0 296 53.5t228 137.5q-41 10 -73 26q-92 -72 -192.5 -117.5t-225.5 -45.5q-115 0 -206 29.5t-154.5 80.5t-98.5 121t-35 149z M680 541q0 -76 59.5 -140.5t153.5 -105.5q61 43 117.5 93t113 104.5t114.5 106.5t124 97q-59 41 -136.5 65.5t-181.5 24.5q-96 0 -165.5 -25.5t-113.5 -63.5t-64.5 -81t-20.5 -75zM969 268q20 -6 38.5 -9t39.5 -7q98 86 191 184.5t212 192.5q-20 21 -43 35 q-59 -41 -114.5 -90.5t-109 -101.5t-106.5 -104.5t-108 -99.5zM1090 246q14 -4 26.5 -4h26.5q90 0 158.5 14t124 40t98.5 58.5t82 69.5q-29 45 -61 90t-68 86q-98 -78 -191.5 -172t-195.5 -182zM1477 709q10 -10 17 -17.5t13 -17.5q80 63 172 108l-4 4q-53 -10 -102 -30 t-96 -47zM1532 645q35 -41 65.5 -84t61.5 -84q43 43 88 84t102.5 76t131 59.5t173.5 30.5v4q-112 60 -227 60q-104 0 -206.5 -41t-188.5 -105zM1696 428q53 -66 118.5 -110t163.5 -44q57 0 107.5 17.5t89.5 51.5t61.5 81t22.5 106t-31.5 91t-107.5 32q-78 0 -137.5 -19.5 t-108.5 -50t-92 -71.5t-86 -84z" />
<glyph unicode="K" horiz-adv-x="2048" d="M33 688q0 23 24.5 56.5t83 64.5t156.5 53.5t248 22.5q53 0 105 -4t106 -15q41 37 114.5 60.5t190.5 23.5q111 0 202 -25.5t181 -78.5q266 182 563 510l41 45v-72l-74 -78q-129 -135 -248.5 -242.5t-236.5 -187.5q33 -23 65.5 -47t67.5 -53q78 63 172 152.5t205 211.5 l49 54v-70l-225 -225q-43 -43 -84 -82t-80 -74q39 -35 80 -74t84 -82l225 -225v-69l-49 53q-229 248 -379 364q-35 -29 -66.5 -53t-66.5 -45q117 -84 237.5 -190.5t249.5 -241.5l74 -78v-72l-41 45q-301 332 -561 510q-88 -53 -181.5 -78.5t-203.5 -25.5q-117 0 -190.5 23.5 t-114.5 60.5q-53 -10 -105.5 -14t-105.5 -4q-150 0 -248 22.5t-156.5 53t-83 64.5t-24.5 56zM94 688q0 -10 20.5 -34.5t69.5 -49t133 -44t213 -19.5q47 0 92.5 3t92.5 11q-23 35 -31 68.5t-8 64.5t8 64.5t31 68.5q-47 8 -92.5 11.5t-92.5 3.5q-129 0 -213 -19.5t-133 -44 t-69.5 -49.5t-20.5 -35zM725 688q0 -76 51 -125q197 27 402 125q-201 98 -400 125q-29 -27 -41 -58.5t-12 -66.5zM831 522q78 -47 234 -47q72 0 150.5 16.5t179.5 73.5q-43 29 -83 52.5t-81 44.5q-104 -53 -202.5 -88t-197.5 -52zM834 852q193 -31 399 -137q41 23 81 45 t81 51q-100 57 -178 73.5t-152 16.5q-78 0 -135.5 -12t-95.5 -33v-4zM1282 688q41 -23 80 -47.5t80 -50.5q33 20 66.5 43.5t72.5 54.5q-78 61 -141 98q-41 -29 -80 -52z" />
<glyph unicode="L" horiz-adv-x="2048" d="M0 -25v72l74 78q129 135 249.5 241.5t237.5 190.5q-35 20 -66.5 45t-66.5 53q-150 -117 -379 -364l-49 -53v69l225 225q43 43 84 82t80 74q-39 35 -80 74t-84 82l-225 225v70l49 -54q111 -123 205 -212t172 -152q35 29 67.5 53.5t65.5 46.5q-117 80 -236.5 187.5 t-248.5 242.5l-74 78v72l41 -45q297 -328 563 -510q90 53 181.5 78.5t201.5 25.5q117 0 190.5 -23.5t114.5 -60.5q53 10 105.5 14.5t105.5 4.5q150 0 248 -22.5t156.5 -53.5t83 -64.5t24.5 -56.5t-24.5 -56.5t-83 -64t-156.5 -53t-248 -22.5q-53 0 -105 4t-106 14 q-41 -37 -114.5 -60.5t-190.5 -23.5q-111 0 -204 25.5t-181 78.5q-260 -178 -561 -510zM467 688q39 -31 72.5 -54.5t66.5 -43.5q41 27 80 51.5t80 46.5l-78 46t-80 52q-66 -37 -141 -98zM653 565q100 -57 179 -73.5t151 -16.5q156 0 234 47q-98 16 -196.5 51t-203.5 89 q-41 -20 -81 -44t-83 -53zM653 811q41 -29 81 -51.5t81 -44.5q207 106 399 137v4q-39 20 -96 32.5t-135 12.5q-74 0 -151.5 -16.5t-178.5 -73.5zM870 688q205 -98 402 -125q51 49 51 125q0 35 -12.5 66.5t-40.5 58.5q-199 -27 -400 -125zM1333 555q47 -8 92 -11t93 -3 q129 0 213 19.5t133 44t69.5 49t20.5 34.5t-20.5 35t-69.5 49.5t-133 44t-213 19.5q-47 0 -92.5 -3.5t-92.5 -11.5q23 -35 31 -68.5t8 -64.5t-8 -64.5t-31 -68.5z" />
<glyph unicode="M" d="M4 422l811 -66l4 4q-33 18 -68.5 44t-66.5 59t-50.5 69.5t-19.5 75.5q0 33 17.5 72t56.5 71.5t100.5 54t149.5 21.5q129 0 226.5 -41t185.5 -104.5t174 -142t190 -154.5q68 35 128.5 60.5t119.5 43t121.5 25.5t134.5 8q47 0 88 -3t82 -13v-64q-86 18 -170 19 q-106 0 -224 -29t-229 -82q78 -53 198 -93t255 -40q45 0 88 5t82 16v-140q-39 -8 -81 -12t-89 -4q-96 0 -170 15.5t-136.5 44t-121.5 67.5t-125 88q-86 -49 -174 -101.5t-190.5 -95.5t-224.5 -71.5t-277 -28.5q-127 0 -248 28.5t-226.5 83t-188.5 132.5t-132 178zM260 356 q57 -72 139 -123t176.5 -83.5t191.5 -48t185 -15.5q123 0 217.5 22.5t173 58.5t146 78t137.5 81q-98 82 -182 150.5t-169 115.5t-175 73.5t-201 26.5q-61 0 -101 -11t-64.5 -28.5t-35 -38t-10.5 -41.5q0 -43 25.5 -77.5t74 -64.5t115 -57.5t148.5 -58.5l67 -24z" />
<glyph unicode="N" horiz-adv-x="2048" d="M0 100v138q88 16 158.5 45.5t124.5 66.5q-139 70 -283 94v62q86 -14 164 -44t170 -77q104 76 190 154.5t174 142t185.5 104.5t226.5 41q88 0 149.5 -21.5t100.5 -54t56.5 -71.5t17.5 -72q0 -39 -19.5 -75.5t-50.5 -69.5t-66.5 -58.5t-68.5 -44.5l4 -4l811 66 q-49 -100 -132 -178t-188.5 -132.5t-227.5 -83t-247 -28.5q-156 0 -277.5 28.5t-224 71.5t-190.5 95.5t-174 101.5q-49 -37 -94 -67.5t-90 -56.5t-93.5 -44t-105.5 -29zM422 326q70 -39 137.5 -81t146 -78t173 -58.5t217.5 -22.5q88 0 185 15.5t191.5 48t176.5 84t139 122.5 l-858 -65l67 24q82 31 148.5 58.5t115 57.5t74 64.5t25.5 77.5q0 20 -10.5 41t-35 38.5t-64.5 28.5t-101 11q-111 0 -201 -26.5t-175 -73.5t-169 -115.5t-182 -150.5z" />
<glyph unicode="O" horiz-adv-x="1781" d="M4 530q0 102 50 196.5t139.5 167.5t213 116t269.5 43q88 0 186.5 -20.5t200.5 -70t208.5 -132t213.5 -207.5l102 -121l25 30q80 100 106.5 193.5t26.5 171.5q0 88 -24.5 145.5t-61.5 91t-79 46t-79 12.5q-66 0 -103.5 -35t-37.5 -94q0 -45 25.5 -70.5t54.5 -25.5 q27 0 53.5 29.5t26.5 60.5q0 8 -6.5 23.5t-8.5 23.5q51 -10 51 -70q0 -59 -35.5 -100t-105.5 -41t-124 45t-54 133q0 92 63.5 155.5t186.5 63.5q39 0 82 -15t83 -46t73.5 -75t56.5 -101v-279q-14 -57 -36 -107.5t-45.5 -92.5t-46 -73.5t-38.5 -49.5l10 -17q41 -66 81 -146.5 t62 -152.5l13 -43v-158l-25 76q-14 41 -31.5 91.5t-39 100.5t-46 97t-51.5 82l-12 16l-33 -30q-125 -117 -238.5 -189t-217 -111.5t-196.5 -53t-173 -13.5q-184 0 -319.5 43t-223.5 116.5t-130 170t-42 200.5zM78 537q0 -72 28.5 -138.5t96 -117t178.5 -80t272 -29.5 q176 0 315.5 25.5t244 62.5t175 78t107.5 74l49 43l-6 8q-80 135 -177 224t-201.5 143.5t-210 77t-201.5 22.5q-190 0 -318.5 -33t-206.5 -87t-111.5 -126t-33.5 -147z" />
<glyph unicode="P" horiz-adv-x="1781" d="M0 -66v158l12 43q23 72 63 153t81 146l10 17q-16 18 -39 49.5t-46.5 73.5t-45 92.5t-35.5 107.5v279q20 57 54 101t74 75t83 46t84 15q123 0 186.5 -63.5t63.5 -155.5q0 -88 -54.5 -133t-123.5 -45q-70 0 -106 41t-36 100t51 70q-2 -8 -8 -23.5t-6 -23.5 q0 -31 26.5 -60.5t53.5 -29.5q29 0 54.5 25.5t25.5 70.5q0 59 -38 94t-103 35q-37 0 -79 -12.5t-79 -46t-61.5 -91t-24.5 -145.5q0 -78 26.5 -171t106.5 -194l25 -30l102 121q106 125 211.5 207.5t209 132t201 70t187.5 20.5q145 0 269 -43t213 -116t139.5 -167t50.5 -197 q0 -104 -42 -200.5t-130 -170t-223.5 -116.5t-319.5 -43q-80 0 -173 13.5t-196.5 53t-217.5 111.5t-238 189l-33 30l-12 -16q-27 -35 -51.5 -82t-46 -97t-39 -100.5t-31.5 -91.5zM238 455l49 -43q37 -33 107.5 -74t175 -78t243.5 -62.5t315 -25.5q162 0 272.5 29.5t178.5 80 t96.5 117t28.5 138.5q0 76 -34 147.5t-111.5 125.5t-205.5 87t-319 33q-96 0 -201.5 -22.5t-210 -77t-201.5 -143.5t-177 -224z" />
<glyph unicode="Q" horiz-adv-x="2277" d="M0 18h2277v-36h-2277v36z" />
<glyph unicode="R" d="M0 -18v36h588q0 92 30.5 175t89 144.5t142.5 98.5t192 37q109 0 193 -31.5t140.5 -90t86 -139.5t29.5 -177q0 -12 -2 -17h764q-33 -141 -125 -249.5t-216 -182t-264.5 -111.5t-267.5 -38q-186 0 -330.5 50t-243.5 128t-153.5 175t-62.5 192h-590zM674 18h428q4 55 39 85 t67 30q33 0 57.5 -14.5t24.5 -24.5q0 -12 -22 -12q-8 0 -17.5 7t-31.5 7q-33 0 -55.5 -20.5t-26.5 -57.5h280q0 76 -38 135.5t-94 100.5t-122.5 62.5t-128.5 21.5q-92 0 -159.5 -33t-112.5 -81t-66.5 -103t-21.5 -103zM678 -18q8 -49 45 -126t120 -147.5t220 -122t346 -51.5 q217 0 364.5 50t237.5 121t132 147.5t52 128.5h-712q-10 -35 -31.5 -61.5t-49.5 -44t-59.5 -27t-62.5 -9.5q-27 0 -56.5 7.5t-56 24.5t-46 44t-21.5 66h-422zM1139 -18q4 -47 43 -76t94 -29q59 0 93 33t42 72h-272z" />
<glyph unicode="S" d="M135 18h764q-2 4 -2 17q0 96 28.5 177t86 139.5t141.5 90t193 31.5q106 0 191 -37t143.5 -98.5t89 -144t30.5 -175.5h588v-36h-590q-8 -94 -62.5 -191.5t-153.5 -175.5t-243.5 -128t-330.5 -50q-127 0 -267.5 38t-264.5 111.5t-216 182t-125 249.5zM193 -18 q8 -51 51 -128t133 -148t236.5 -121t365.5 -50q209 0 346 51.5t220 122t120 147t45 126.5h-422q-4 -39 -22.5 -66t-45 -44t-56 -24.5t-56.5 -7.5q-31 0 -62.5 9.5t-59.5 27t-49.5 44t-31.5 61.5h-712zM971 18h280q-4 37 -26.5 57.5t-55.5 20.5q-23 0 -32 -7t-17 -7 q-23 0 -22 12q0 10 24.5 24.5t57.5 14.5t67.5 -29.5t38.5 -85.5h428q0 47 -21.5 102.5t-66.5 103.5t-112.5 81t-159.5 33q-61 0 -128 -21.5t-123 -62.5t-94 -100.5t-38 -135.5zM977 -18q8 -39 42 -72t93 -33q55 0 94 28.5t43 76.5h-272z" />
<glyph unicode="T" horiz-adv-x="1933" d="M25 758v61h1165v-61l-242 -105q-127 -55 -177 -107t-50 -120q0 -41 20.5 -82t66.5 -73.5t122 -53t184 -20.5q150 0 276 43t217 119.5t141 182t50 230.5q0 84 -20 146h-959q12 96 63.5 177t128 139t170 90t185.5 32q74 0 143.5 -28t129 -77t106.5 -118.5t76 -153.5h112 v-61h-94q10 -37 15.5 -78t5.5 -82q0 -129 -37 -236.5t-100.5 -194.5t-148.5 -152.5t-180.5 -110t-196.5 -67t-198 -22.5q-139 0 -228 30t-141 74t-72.5 95t-20.5 96q0 55 17 109.5t57 106t106.5 99.5t167.5 93l170 76v4h-1030zM905 979h852q-51 121 -152.5 181.5 t-224.5 60.5q-68 0 -137 -14.5t-131.5 -44t-116 -76t-90.5 -107.5z" />
<glyph unicode="U" horiz-adv-x="1974" d="M0 918v61h113q27 84 75 153.5t107 118.5t129 77t143 28q92 0 185.5 -32t170 -90t128 -139t63.5 -177h-958q-20 -61 -21 -146q0 -125 50.5 -230.5t141.5 -182t216 -119.5t276 -43q109 0 184.5 20.5t121.5 53t66.5 73.5t20.5 82q0 68 -50 120t-177 107l-242 105v61h1166 v-61h-1030v-4l170 -76q100 -45 166.5 -93t106.5 -99.5t57.5 -105.5t17.5 -110q0 -45 -20.5 -96t-73 -95t-142.5 -74t-227 -30q-145 0 -297 50.5t-278 148.5t-205.5 244.5t-79.5 339.5q0 41 5 82t15 78h-94zM176 979h852q-37 61 -90 107.5t-115.5 76t-132 44t-137.5 14.5 q-123 0 -224.5 -60.5t-152.5 -181.5z" />
<glyph unicode="V" d="M0 641h20q160 0 313.5 -37t305.5 -95t303.5 -129t306.5 -136q86 6 185.5 24.5t234.5 53.5v4q-98 31 -175 77t-129 104t-80 125.5t-28 139.5q0 86 32 146.5t84 98.5t116.5 55.5t130.5 17.5q119 0 210 -32t152.5 -79t92 -101.5t30.5 -99.5q0 -29 -12 -58.5t-37.5 -54 t-64.5 -40t-90 -15.5q-41 0 -76 11.5t-64 31.5l60 13q115 23 150.5 61.5t35.5 87.5q0 23 -19.5 59.5t-56.5 70.5t-90 58.5t-121 24.5q-53 0 -105 -19.5t-93 -56.5t-66.5 -91t-25.5 -126q0 -127 78.5 -231.5t254.5 -155.5q111 29 265.5 76t359.5 113v-50q-154 -49 -284 -90 t-234 -69v-4q76 -12 182 -13q68 0 153 11.5t183 33.5v-37q-115 -25 -208 -35t-177 -10q-125 0 -227 23q-125 -35 -227.5 -61.5t-182.5 -40.5v-5q182 -72 372.5 -122t397.5 -50q53 0 118.5 7t133.5 12v-37q-57 -8 -127 -13t-129 -5q-244 0 -448.5 55t-393.5 137 q-131 -29 -227 -40t-178 -11q-256 0 -483.5 123t-383.5 366zM170 569l14 -10q100 -100 193.5 -163.5t194 -99.5t215 -49.5t260.5 -13.5h104v5q-106 47 -213 95t-218.5 93t-229 81t-246.5 58l-70 8z" />
<glyph unicode="W" horiz-adv-x="2199" d="M0 0v37q156 27 282 58.5t225 66.5t176 72.5t136 74.5q-76 29 -174 42.5t-227 13.5q-53 0 -101.5 -2.5t-97.5 -7.5t-102.5 -13t-116.5 -23v37q27 6 75 14.5t106.5 15.5t124 11t126.5 4q147 0 250.5 -15t179.5 -50q59 39 103.5 78t83.5 73q-43 25 -92.5 44.5t-113 33 t-142 21.5t-181.5 8q-49 0 -111.5 -8t-130 -22.5t-139 -34t-139.5 -42.5v50q186 78 363.5 123t324.5 45q80 0 139.5 -12.5t106.5 -35t86 -54.5t80 -68q39 37 79 68.5t87 54t106.5 35t138.5 12.5q147 0 324.5 -45.5t364.5 -122.5v-50q-68 23 -139.5 42.5t-139.5 34t-130 22.5 t-112 8q-102 0 -181 -7t-141.5 -21.5t-111.5 -35t-92 -45.5q37 -35 81 -72.5t103 -78.5q72 35 176 51q53 10 117 13t137 3q61 0 127 -4t124.5 -11t106.5 -15.5t75 -14.5v-37q-63 14 -116.5 22.5t-103 13.5t-97.5 7.5t-101 2.5q-129 0 -228.5 -13.5t-175.5 -44.5 q121 -76 315.5 -146.5t506.5 -123.5v-37q-176 31 -310.5 66.5t-237 72.5t-179 76t-134.5 78q-84 -39 -140 -100.5t-97 -153.5h-4q-41 92 -98.5 153.5t-141.5 98.5q-59 -37 -134 -76t-178.5 -76t-237.5 -72.5t-308 -66.5zM899 315q66 -33 113 -83t88 -119q41 68 88 119 t112 85q-59 37 -106 73t-94 67q-47 -31 -94.5 -67t-106.5 -75z" />
<glyph unicode="X" d="M0 0v37q68 -6 133.5 -12.5t118.5 -6.5q207 0 397.5 50.5t372.5 121.5v5q-80 14 -182.5 40.5t-227.5 61.5q-102 -23 -227 -23q-84 0 -177 10.5t-208 34.5v37q98 -23 183 -34t153 -11q104 0 182 13v4q-104 29 -234 69.5t-284 89.5v50q205 -66 359.5 -113t265.5 -76 q176 51 254.5 155.5t78.5 231.5q0 72 -25.5 126t-66.5 91t-93 56.5t-105 19.5q-68 0 -121 -24.5t-90 -58.5t-56.5 -70.5t-19.5 -59.5q0 -49 36 -88t150 -61l60 -13q-29 -20 -64 -31.5t-76 -11.5q-53 0 -91 15.5t-63.5 40t-37.5 54.5t-12 58q0 45 30.5 99.5t92 101.5 t152.5 79t210 32q66 0 130.5 -17.5t116.5 -55.5t83.5 -98.5t31.5 -146.5q0 -72 -27.5 -139.5t-79.5 -125.5t-129 -104.5t-175 -76.5v-4q135 -35 234.5 -53.5t185.5 -24.5q156 66 307 136.5t303 128.5t305.5 95t312.5 37h21l-18 -29q-78 -123 -175.5 -214t-208 -152.5 t-233.5 -92t-250 -30.5q-82 0 -178 11t-227 40q-188 -82 -393 -137t-449 -55q-59 0 -129 5t-127 13zM1237 233h104q145 0 260 13.5t215.5 49.5t193.5 99.5t194 163.5l14 10l-4 4l-70 -8q-129 -23 -246.5 -58.5t-229.5 -80.5t-218.5 -93t-212.5 -95v-5z" />
<glyph unicode="Y" horiz-adv-x="1593" d="M0 432q0 117 46 220.5t138 179t231.5 119.5t323.5 44q72 0 156 -9t149 -19l-77 98q-53 66 -85 145.5t-32 155.5q0 121 54 228.5t148.5 188.5t222.5 128t273 47h45v-258h-8q-98 0 -191.5 -32t-165 -89t-114.5 -140t-43 -184q0 -78 23.5 -154.5t95.5 -174.5l29 -39l-70 12 q-66 10 -112 16.5t-107 6.5q-135 0 -248 -37t-192.5 -105.5t-125 -167t-45.5 -219.5q0 -96 31 -171t85 -126t128 -77.5t162 -26.5q106 0 184 32.5t130.5 80t78 101.5t25.5 97q0 10 -4 26.5t-15 26.5q-25 -27 -52.5 -42t-65.5 -15q-53 0 -99.5 37t-46.5 125q0 43 17.5 89 t55.5 85t98.5 64.5t144.5 25.5q102 0 196 -41t205 -152l16 -16v-311l-55 -131q-25 -59 -47.5 -103.5t-45 -81t-48 -70.5t-58.5 -71q63 -8 127 -17.5t127 -21.5v-37q-147 20 -295 37l-36 -33q84 -14 165.5 -31.5t165.5 -33.5v-37h-6q-18 0 -74.5 -24.5t-134.5 -94.5 q-35 -29 -57.5 -48t-30.5 -19q-18 0 -18 20q0 2 4 10.5t22.5 25.5t56.5 47t105 77l19 12l-265 60q-127 -88 -269 -134.5t-290 -46.5q-129 0 -216 17.5t-140 42t-75.5 50t-22.5 42.5q0 27 27.5 58.5t95 59t182.5 45t291 17.5q156 0 265 -10t195 -23q84 90 136.5 212t52.5 268 q0 121 -30 204.5t-76 136t-103 75t-113 22.5q-111 0 -175 -58.5t-64 -152.5q0 -66 40 -97.5t81 -31.5t58 22.5t17 44.5q0 64 -67 64h-8q20 49 79 49q14 0 39 -9t48.5 -32.5t40 -61.5t16.5 -96q0 -86 -36 -161.5t-106.5 -131t-175 -87t-241.5 -31.5q-170 0 -296 49t-209 126 t-124 170t-41 181zM250 -389q0 -14 24.5 -31.5t73.5 -33t122 -27t171 -11.5q78 0 151.5 12.5t138 32t118 46t90.5 57.5q-123 23 -229 36t-212 13q-221 0 -334.5 -28.5t-113.5 -65.5zM938 -266v-4q61 -8 128 -18.5t122 -20.5l31 26q-72 6 -140.5 10.5t-140.5 6.5z" />
<glyph unicode="Z" horiz-adv-x="1593" d="M0 205v311l16 16q111 111 205 152t197 41q84 0 144.5 -25.5t98 -64.5t55 -85t17.5 -89q0 -88 -46 -125t-99 -37q-39 0 -66.5 15.5t-52.5 41.5q-10 -10 -14 -26.5t-4 -26.5q0 -43 25.5 -97t77.5 -101.5t130 -80t184 -32.5q88 0 162 26.5t128 77.5t85 126t31 171 q0 121 -45 219.5t-125 167t-192.5 105.5t-247.5 37q-61 0 -107.5 -6.5t-112.5 -16.5l-69 -12l28 39q72 98 95.5 175t23.5 154q0 100 -43 183.5t-114.5 140.5t-165 89t-191.5 32h-8v258h45q145 0 273 -47t222.5 -128t148.5 -188.5t54 -228.5q0 -76 -31.5 -156t-84.5 -145 l-78 -98q66 10 149.5 19t155.5 9q184 0 323.5 -44t231.5 -119.5t138 -179t46 -220.5q0 -88 -41 -181t-123.5 -170t-208.5 -126t-296 -49q-137 0 -241.5 31.5t-175.5 87t-106.5 131t-35.5 161.5q0 57 16 95.5t39.5 62t47.5 32.5t40 9q59 0 80 -49h-8q-68 0 -68 -64 q0 -23 17.5 -45t58.5 -22t81 31.5t40 97.5q0 94 -64.5 152.5t-175.5 58.5q-55 0 -112.5 -22.5t-103.5 -75t-76 -136.5t-30 -204q0 -145 52.5 -267.5t136.5 -212.5q86 12 195.5 22.5t265.5 10.5q176 0 290.5 -17.5t182 -45t95.5 -59t28 -58.5q0 -16 -22.5 -42t-76 -50.5 t-140.5 -42t-216 -17.5q-147 0 -289.5 46t-269.5 135l-264 -60l18 -12q68 -47 105.5 -77t56 -47t23 -25.5t4.5 -10.5q0 -20 -19 -20q-8 0 -30.5 19.5t-57.5 47.5q-78 70 -134 94.5t-75 24.5h-6v37q84 16 166 33.5t166 31.5l-37 33q-147 -16 -295 -37v37q63 12 126.5 21.5 t127.5 17.5q-33 37 -58.5 71t-48 70.5t-45 80.5t-47.5 104zM375 -283q72 6 140.5 10.5t139.5 6.5v-4q-61 -8 -127.5 -18.5t-121.5 -20.5zM455 -344q37 -31 90 -57.5t117.5 -46t138 -32t151.5 -12.5q98 0 171 11.5t122 27t73.5 33t24.5 31.5q0 37 -113.5 65.5t-334.5 28.5 q-106 0 -211.5 -13.5t-228.5 -35.5z" />
<glyph unicode="_" horiz-adv-x="512" />
<glyph unicode="a" d="M4 516q0 129 56.5 191.5t132.5 62.5q31 0 60.5 -12.5t53 -35t37.5 -55t14 -75.5q0 -41 -21.5 -58.5t-74.5 -17.5q-59 0 -91 -22.5t-32 -73.5q0 -10 7.5 -35t28 -51.5t57 -46t98.5 -19.5q98 0 191 61.5t189.5 153.5t201 200t225 200t262 153.5t309.5 61.5q162 0 288 -54.5 t212 -142.5t131 -199.5t45 -224.5q0 -96 -34 -186t-97.5 -161t-155.5 -113t-209 -42q-102 0 -174 36t-117 88.5t-66.5 113.5t-21.5 113q0 63 19.5 120.5t56.5 102.5t91.5 71.5t121.5 26.5q37 0 75 -14.5t68.5 -39t50 -59t19.5 -73.5q0 -92 -37 -139.5t-86 -47.5 q-55 0 -79.5 24t-24.5 56q0 27 7 33t14 9t14.5 10.5t7.5 37.5q0 25 -20.5 40.5t-59.5 15.5q-18 0 -39.5 -9.5t-41 -29t-33 -50t-13.5 -75.5q0 -41 16.5 -82t50 -72.5t84 -51t117.5 -19.5q63 0 127 20.5t116 64.5t85 114.5t33 170.5q0 115 -43 199t-113 138t-157 81t-175 27 q-145 0 -243.5 -45t-159 -109.5t-87 -134.5t-26.5 -117q0 -61 26.5 -94t86.5 -43l28 -4l-20 -25q-92 -111 -190.5 -154.5t-174.5 -43.5q-98 0 -154 59t-56 135v31l-48 -43q-178 -168 -381 -168q-92 0 -159.5 31.5t-111.5 82t-65.5 112t-21.5 120.5zM934 430q0 -47 8 -77.5 t23.5 -49t34 -26t40.5 -7.5q55 0 94.5 22.5t65.5 47.5q-35 35 -50 77t-15 103q0 37 12 80t33.5 88t52.5 89t65 83l-4 4q-55 -31 -118.5 -80t-117.5 -107.5t-89 -123t-35 -123.5z" />
<glyph unicode="b" d="M4 477q0 113 45 224.5t131 199.5t212 142.5t288 54.5q168 0 309 -61.5t262 -153.5t225.5 -200t201 -200t189.5 -153.5t191 -61.5q61 0 98 19.5t57.5 46t28 51.5t7.5 35q0 51 -32 73.5t-91 22.5q-53 0 -74.5 17.5t-21.5 58.5q0 43 14 75.5t37.5 55t53.5 35t60 12.5 q76 0 132.5 -62.5t56.5 -191.5q0 -59 -21.5 -120.5t-65.5 -112t-111.5 -82t-160.5 -31.5q-203 0 -380 168l-48 43v-31q0 -76 -56 -135t-155 -59q-76 0 -174 44t-190 154l-21 25l29 4q59 10 86 43t27 94q0 47 -26.5 117t-87 134.5t-160 109.5t-242.5 45q-88 0 -175 -27 t-157 -81t-113 -138t-43 -199q0 -100 33 -170.5t85 -114.5t115.5 -64.5t127.5 -20.5q68 0 118 19.5t83.5 51t50 72.5t16.5 82q0 45 -13.5 75.5t-33 50t-41 29t-39.5 9.5q-39 0 -59.5 -15.5t-20.5 -40.5q0 -31 7 -38t14.5 -10t14.5 -9t7 -33q0 -33 -24.5 -56.5t-79.5 -23.5 q-49 0 -86 47.5t-37 139.5q0 39 19.5 73.5t50 59t68.5 39t75 14.5q68 0 122 -26.5t91 -71.5t56.5 -102.5t19.5 -120.5q0 -51 -21.5 -112.5t-67 -114t-118 -88.5t-172.5 -36q-117 0 -209 42t-155.5 113t-97.5 161t-34 186zM1090 860q35 -39 65.5 -83t52 -89t33.5 -88t12 -80 q0 -61 -15 -103t-50 -77q27 -25 65.5 -47.5t94.5 -22.5q20 0 39.5 7.5t35 26t23.5 49t8 77.5q0 59 -35 123.5t-89 123t-117.5 108t-118.5 79.5z" />
<glyph unicode="c" d="M16 561q0 109 36 185.5t92.5 126t125 73t133.5 23.5q70 0 135.5 -24.5t116 -69t80 -107.5t29.5 -141q0 -53 -19.5 -97.5t-51 -77t-70.5 -50t-76 -17.5q-86 0 -131 45t-45 111q0 59 27.5 91t61.5 49t62.5 28.5t28.5 29.5q0 8 -6 22.5t-21.5 28t-43 22.5t-70.5 9 q-31 0 -73 -13t-81 -45t-65.5 -85t-26.5 -131q0 -76 38 -152t118.5 -136t207.5 -98t303 -38q223 0 432.5 52t407.5 149l-4 4q-53 -10 -110 -10q-13 0 -29 1q-74 3 -142.5 19t-126 46t-90.5 71q-16 -10 -33.5 -13.5t-35.5 -3.5q-39 0 -74 15.5t-60.5 41t-41 60.5t-15.5 74 t15.5 73.5t41 60t60.5 41t74 15.5t73.5 -15.5t60.5 -41t41 -60t15 -73.5q0 -53 -26 -97q41 -47 126 -72.5t189 -25.5q84 0 179 21.5t186.5 60.5t171 93.5t133.5 121.5l-23 25q-31 33 -85 60.5t-113.5 47t-118 30.5t-97.5 11q-59 0 -121.5 -6t-154.5 -10q-17 -1 -33 -1 q-100 0 -185 22q-99 24 -182 64t-153 87t-128 89t-106.5 69.5t-89.5 27.5t-62.5 5t-21.5 24q0 25 61.5 53.5t151 54t186.5 42t171 16.5q76 0 153.5 -18.5t147.5 -46t128 -57.5t95 -54l432 -275q16 -10 50 -35.5t74 -60.5t80 -76t67 -84l-13 -20q-39 -63 -113.5 -141 t-180 -157t-239.5 -155t-289 -134t-328 -93t-359 -35q-227 0 -385 47t-258.5 125t-145.5 179.5t-45 209.5z" />
<glyph unicode="d" d="M16 735q27 43 67 84t80 76t73.5 60.5t50.5 35.5l432 275q37 25 95 54.5t128 57t147.5 46t153.5 18.5q74 0 171 -16.5t186.5 -42t150.5 -54.5t61 -53q0 -18 -21.5 -23.5t-61.5 -5.5q-41 0 -89.5 -27.5t-106.5 -69.5t-128 -89t-153 -87t-183 -64q-86 -21 -184 -22 q-16 0 -33 1q-92 4 -154.5 10t-122.5 6q-39 0 -97 -11t-117.5 -30.5t-113.5 -47.5t-85 -60l-23 -25q53 -68 133 -122t171.5 -93t186.5 -60.5t179 -21.5q104 0 189 25.5t126 72.5q-26 41 -26 93q0 43 15 77.5t41 60t60.5 41t73.5 15.5t74 -15.5t60.5 -41t41 -60t15.5 -73.5 t-15.5 -74t-41 -60.5t-60.5 -41t-74 -15.5q-18 0 -35.5 3t-33.5 14q-33 -41 -90.5 -71t-126 -46t-142.5 -20q-16 -1 -31 0q-57 0 -108 10l-4 -4q199 -96 407.5 -148.5t431.5 -52.5q176 0 303.5 38t208 98t118.5 136t38 152q0 78 -26.5 131t-65.5 85t-81 45t-73 13 q-43 0 -70.5 -9t-43 -22.5t-21.5 -27.5t-6 -23q0 -18 27.5 -29.5t61.5 -28.5t62.5 -49t28.5 -91q0 -66 -45 -111t-131 -45q-37 0 -76 17.5t-70.5 50t-51 76.5t-19.5 98q0 78 29.5 141t80 107.5t116 69t135.5 24.5q66 0 134 -23.5t124.5 -73t92.5 -126t36 -185.5t-45.5 -210 t-145.5 -179t-258 -125t-385 -47q-186 0 -359 35t-328 93t-289 134t-239.5 155t-180 156.5t-113.5 141.5z" />
<glyph unicode="e" d="M12 641q0 61 24.5 114.5t65.5 96.5t92.5 74.5t106.5 50.5q-2 -27 -4 -50.5t-2 -54.5q0 -152 69.5 -297t210 -258.5t352.5 -184.5t498 -71h13v5l-105 30q-178 59 -315 156.5t-230.5 205t-141.5 214t-48 186.5q0 66 27.5 137.5t83 132t141.5 99.5t203 39h26l-8 -13 q-141 -221 -141 -419q0 -147 60.5 -276.5t174 -231t273 -170t360.5 -95.5l4 5q-133 45 -243.5 105t-190.5 141t-124 184.5t-44 232.5q0 102 28.5 187t78 152t112 116t130 80.5t135 47t126.5 15.5q102 0 203 -40t179.5 -109.5t126.5 -164.5t48 -206q0 -102 -30.5 -177 t-82.5 -124t-119 -72.5t-136 -23.5q-68 0 -117 19.5t-81 50t-46 67.5t-14 74q0 45 17.5 82.5t45 65.5t61 43t68.5 15q33 0 66 -13t60.5 -38.5t45 -62.5t17.5 -82q0 -20 -2 -26.5t-2 -16.5q0 -18 5 -24.5t13 -6.5q18 0 44 15.5t48.5 46t37.5 77.5t15 111q0 94 -36.5 175 t-102 141.5t-153.5 95t-193 34.5q-102 0 -194.5 -38.5t-162 -107.5t-111.5 -163t-42 -205q0 -129 53.5 -238.5t144.5 -191.5t209.5 -128t248.5 -46q121 0 231.5 52.5t183.5 125.5l10 11v-324h-995q-360 0 -617 66.5t-422 165t-243 210t-78 199.5z" />
<glyph unicode="f" horiz-adv-x="2390" d="M20 0v324l11 -11q74 -74 184.5 -126t230.5 -52q129 0 248 46t210 128t144.5 191.5t53.5 238.5q0 111 -42 205t-111.5 163t-163 107.5t-193.5 38.5q-104 0 -192.5 -34.5t-154 -95t-102.5 -141.5t-37 -175q0 -63 15.5 -110.5t38 -78t48 -46t44.5 -15.5q8 0 13 6t5 25 q0 10 -2 16t-2 27q0 45 17.5 82t45 62.5t60.5 38.5t66 13t67.5 -15t62 -43t45 -65.5t17.5 -82.5q0 -37 -14.5 -74t-46 -67.5t-80.5 -50t-117 -19.5q-72 0 -137.5 23.5t-117.5 72.5t-83 124t-31 177q0 111 48.5 206t127 164.5t179 109.5t203.5 40q57 0 125.5 -15.5t136 -47 t130 -80.5t111.5 -116t78 -152t29 -187q0 -129 -44 -232.5t-124 -184.5t-190.5 -141t-243.5 -105l4 -5q199 27 359.5 95.5t274 170t174 230.5t60.5 277q0 199 -141 419l-8 13h26q117 0 203 -39t141.5 -99.5t83 -132t27.5 -137.5q0 -80 -48 -186.5t-141.5 -214t-230.5 -204.5 t-315 -157l-105 -30v-5h13q285 0 497.5 71t353 184.5t210 259t69.5 296.5q0 31 -2 54.5t-4 50.5q55 -18 106.5 -50t92.5 -75t65.5 -96.5t24.5 -114.5q0 -88 -78 -199.5t-243 -210t-423 -165t-616 -66.5h-996z" />
<glyph unicode="g" horiz-adv-x="1478" d="M37 711q0 10 21.5 31.5t51 44t58.5 40t43 17.5q23 0 76 -16.5t126.5 -35t162 -35t182.5 -16.5q37 0 59.5 5.5t36.5 12.5t21.5 16t13.5 18q8 -8 20.5 -17.5t33 -16.5t50 -12.5t76.5 -5.5q94 0 123 16.5t29 43.5q0 14 -8.5 29.5t-29 27.5t-56 20.5t-91.5 8.5q-27 0 -37 -2 t-18 -3t-21.5 -3t-46.5 -2q-29 0 -66.5 27.5t-72.5 73.5t-59.5 107.5t-24.5 128.5q0 70 20.5 121t52.5 84t71.5 48.5t78.5 15.5q31 0 64 -10.5t60.5 -33t46 -57t18.5 -84.5q0 -39 -12.5 -65.5t-33 -44t-44 -25.5t-47.5 -8q-39 0 -76 23.5t-37 83.5q0 35 13.5 50t29.5 15 q23 0 28 -15.5t8 -33.5t9 -33.5t31 -15.5q29 0 49 20.5t20 55.5q0 23 -12 44t-30.5 37.5t-41 25.5t-43.5 9q-10 0 -32.5 -5t-45 -20.5t-41 -46t-18.5 -79.5q0 -29 5 -54.5t22.5 -50t49.5 -49t85 -51.5l166 -84q55 -29 115.5 -68t109.5 -77.5t81 -72.5t32 -52t-32 -52 t-81 -73t-109.5 -78t-115.5 -68l-166 -84q-53 -27 -85 -51t-49.5 -49t-22.5 -50.5t-5 -53.5q0 -49 18.5 -80t41 -46.5t45 -20.5t32.5 -5q20 0 43 9t41.5 25.5t30.5 38t12 44.5q0 35 -20.5 55.5t-48.5 20.5q-18 0 -31.5 -10.5t-13.5 -39.5t-8.5 -39t-22.5 -10 q-16 0 -29.5 15.5t-13.5 50.5q0 59 37 82.5t76 23.5q25 0 48 -8t43.5 -25.5t33 -44t12.5 -65.5q0 -49 -18.5 -84t-46 -57.5t-60.5 -32.5t-64 -10q-39 0 -78.5 15t-71.5 48t-52.5 83t-20.5 122q0 68 24.5 129t59.5 107t73 74t66 28q33 0 46.5 -2t21.5 -3t18.5 -3t36.5 -2 q55 0 91 8t56.5 20t29 27.5t8.5 30.5q0 27 -29 43t-123 16q-47 0 -76.5 -5t-50 -12.5t-33 -16.5t-20.5 -17q-6 8 -13.5 17t-21.5 16.5t-36.5 12.5t-59.5 5q-94 0 -182.5 -16.5t-162 -35t-127 -34.5t-75.5 -16q-14 0 -43 17t-58.5 39.5t-51 44t-21.5 32.5zM393 406 q0 41 29 69.5t70 28.5t69.5 -29t28.5 -69q0 -41 -29 -70t-69 -29q-41 0 -70 29t-29 70zM393 1016q0 41 29 69.5t70 28.5t69.5 -28.5t28.5 -69.5t-29 -69.5t-69 -28.5q-41 0 -70 28.5t-29 69.5z" />
<glyph unicode="h" horiz-adv-x="1478" d="M37 711q0 18 31.5 52t81 72.5t109.5 77.5t116 68l166 84q53 27 84.5 51.5t49 49t22.5 50t5 54.5q0 49 -18 79.5t-40.5 46t-46.5 20.5t-32 5q-23 0 -45 -9t-40.5 -25.5t-30 -38t-11.5 -43.5q0 -35 20.5 -55.5t49.5 -20.5q25 0 31 15.5t9 33.5t8 33.5t28 15.5 q16 0 29.5 -15.5t13.5 -49.5q0 -59 -37 -83t-76 -24q-25 0 -48.5 8t-44 25.5t-32.5 44.5t-12 65q0 49 17.5 84t45 57.5t61.5 33t64 10.5q39 0 79 -15.5t72 -48.5t52 -84t20 -121q0 -68 -24.5 -129t-59 -107t-72.5 -73.5t-67 -27.5q-33 0 -46 2t-21.5 3t-18.5 3t-37 2 q-55 0 -91 -8.5t-56.5 -20.5t-28.5 -27.5t-8 -29.5q0 -12 6 -23.5t22.5 -19.5t46 -12.5t77.5 -4.5q45 0 75.5 5.5t51 12.5t32 16t21.5 18q6 -8 13 -17.5t21.5 -16.5t37 -12.5t59.5 -5.5q94 0 182 16.5t162 35t127 35t76 16.5q14 0 42.5 -17.5t57.5 -40t51.5 -44t22.5 -31.5 t-22.5 -32t-51.5 -44.5t-57.5 -39.5t-42.5 -17q-23 0 -76 16t-127 34.5t-162 35t-182 16.5q-37 0 -59.5 -5t-37 -12.5t-21.5 -16.5t-13 -17q-10 8 -21.5 17t-32 16.5t-51 12.5t-75.5 5q-47 0 -77 -4t-46.5 -12.5t-22.5 -19.5t-6 -23q0 -14 8 -30t28.5 -28t56.5 -20t91 -8 q27 0 37 2t18.5 3t21.5 3t46 2q29 0 67 -28t72.5 -74t59 -107.5t24.5 -128.5q0 -72 -20 -122t-52 -83t-72 -48t-79 -15q-31 0 -64.5 10t-61 32.5t-45 57.5t-17.5 84q0 39 12 65.5t32.5 44t44 25.5t48.5 8q39 0 76 -23.5t37 -82.5q0 -35 -13.5 -50.5t-29.5 -15.5 q-14 0 -22.5 10.5t-8.5 38.5q0 29 -13.5 39.5t-31.5 10.5q-29 0 -49.5 -20.5t-20.5 -55.5q0 -23 11.5 -44.5t30 -38t41 -25.5t44.5 -9q8 0 32 5t46.5 20.5t40.5 46t18 80.5q0 29 -5 54t-22.5 50t-49 49.5t-84.5 50.5l-166 84q-55 29 -115.5 68t-110 78t-81 72.5t-31.5 52.5z M889 406q0 41 28.5 69.5t69.5 28.5t69.5 -29t28.5 -69q0 -41 -28.5 -70t-69.5 -29t-69.5 29t-28.5 70zM889 1016q0 41 28.5 69.5t69.5 28.5t69.5 -28.5t28.5 -69.5t-28.5 -69.5t-69.5 -28.5t-69.5 28.5t-28.5 69.5z" />
<glyph unicode="i" horiz-adv-x="2048" d="M20 786q10 4 23.5 6.5t28.5 2.5q61 0 105 -30t65 -83l110 66q53 31 86 57t51.5 49t24.5 41t6 33q0 39 -31.5 67.5t-99.5 28.5q-47 0 -98 -12.5t-123 -40.5l-25 -10v204q39 27 95.5 41.5t103.5 14.5q49 0 94 -16.5t80 -47.5t56.5 -74t21.5 -94q0 -37 -9.5 -68.5t-36 -64.5 t-73.5 -68.5t-123 -82.5l-159 -101l26 -45l14 6q127 53 195 53q117 0 176.5 -60t71.5 -140h37q193 0 341 -34t265 -74t208 -73.5t169 -33.5h35l-17 -21q-20 -27 -83.5 -62.5t-146.5 -67.5t-176.5 -54.5t-172.5 -22.5q-141 0 -220 56.5t-79 185.5q0 39 8 83t14 81h-182v-8 q0 -51 -18.5 -99.5t-49 -86t-73.5 -61.5t-93 -24q-61 0 -103 13.5t-83 29.5l43 152q33 -14 84 -24.5t88 -10.5q92 0 130 40t38 85q0 31 -12.5 64.5t-39 62.5t-67.5 48.5t-98 19.5q-55 0 -116.5 -22.5t-113 -66.5t-85 -110t-33.5 -152q0 -135 79.5 -231t268.5 -152l20 -6 l-61 -127l-31 13q-66 25 -124 66.5t-103 103t-71.5 144.5t-26.5 189q0 82 11 145.5t24.5 115t24.5 90.5t11 71q0 29 -9 49.5t-32 45.5zM811 614q0 117 78 170.5t201 53.5q76 0 144.5 -34t132 -85t121.5 -109.5t115.5 -109.5t116 -85t119.5 -34q59 0 90 23.5t49 64.5l-88 49 q-53 29 -87 73t-34 95q0 47 28 70.5t71 23.5q61 0 110.5 -50t49.5 -152q0 -37 -14.5 -88.5t-47.5 -97.5t-87 -77.5t-134 -31.5q-78 0 -152.5 29.5t-168 66.5t-214 70.5t-288.5 42.5q-66 4 -88.5 32.5t-22.5 89.5z" />
<glyph unicode="j" horiz-adv-x="2048" d="M20 578q0 102 49.5 152t110.5 50q43 0 71 -23.5t28 -70.5q0 -51 -34 -95t-87 -73l-88 -49q18 -41 49 -64.5t90 -23.5q61 0 119.5 34t116 85t115.5 109.5t121.5 109.5t132.5 85t144 34q123 0 201 -53.5t78 -170.5q0 -61 -22.5 -89.5t-88.5 -32.5q-168 -8 -288.5 -42 t-214 -71t-169 -66.5t-151.5 -29.5q-80 0 -134 31.5t-87 77.5t-47.5 97.5t-14.5 88.5zM317 203h35q76 0 168 33.5t209 73.5t265.5 74t340.5 34h37q12 80 71.5 140t176.5 60q68 0 195 -53l14 -6l26 45l-159 101q-76 47 -123 82.5t-73.5 68.5t-36 64.5t-9.5 68.5q0 51 21.5 94 t56.5 74t80 47.5t94 16.5q47 0 103.5 -14.5t95.5 -41.5v-204l-25 10q-72 29 -123 41t-98 12q-68 0 -99.5 -28.5t-31.5 -67.5q0 -14 6 -32.5t24.5 -41.5t51 -49.5t86.5 -56.5l110 -66q20 53 64.5 83t105.5 30q14 0 27.5 -2t24.5 -7l-35 -38q-23 -25 -32 -45.5t-9 -49.5 q0 -33 11 -71.5t24.5 -90t24.5 -115t11 -145.5q0 -106 -26.5 -189t-71.5 -144.5t-104.5 -103.5t-122.5 -66l-31 -13l-61 127l20 6q188 55 268 151.5t80 231.5q0 86 -33.5 152t-85 110t-113 66.5t-116.5 22.5q-57 0 -98 -19.5t-67.5 -48.5t-39 -62.5t-12.5 -64.5 q0 -45 38 -85t130 -40q37 0 88 10.5t84 24.5l43 -152q-41 -16 -83 -29.5t-103 -13.5q-49 0 -92.5 24t-74 61.5t-49 86t-18.5 99.5v8h-182q6 -37 14 -81t8 -83q0 -129 -78.5 -185.5t-220.5 -56.5q-80 0 -173 22.5t-176 54.5t-146.5 68t-83.5 62z" />
<glyph unicode="k" horiz-adv-x="983" d="M49 188v103q0 84 57.5 124t194.5 40q86 0 138.5 -15.5t82 -39t39.5 -52.5t10 -55q0 -39 -22.5 -67.5t-67.5 -28.5q-39 0 -62.5 26.5t-47 59t-52 59.5t-79.5 27q-63 0 -96 -37t-33 -90q0 -47 18 -81t61 -55.5t113 -33t174 -11.5q117 0 185.5 11.5t104.5 27t46 30.5t10 26 q0 18 -13 41.5t-29.5 50t-30 52.5t-13.5 50q0 51 34 76t67 25q39 0 67.5 -25t28.5 -66q0 -39 -23.5 -64.5t-60.5 -29.5l35 -55q16 -25 26.5 -46.5t10.5 -45.5q0 -18 -11.5 -39t-41 -39t-83 -29.5t-135.5 -11.5h-266q-109 0 -174.5 10t-101 31.5t-48 57.5t-12.5 89z" />
<glyph unicode="l" horiz-adv-x="983" d="M49 360q0 41 28.5 66t67.5 25q33 0 67 -25t34 -76q0 -25 -13.5 -50.5t-30 -52t-29.5 -50t-13 -41.5q0 -10 10 -25.5t46 -31t104.5 -27t185.5 -11.5q104 0 174 11.5t113 33t61 55.5t18 81q0 53 -32.5 90t-96.5 37q-51 0 -79.5 -27t-52 -59.5t-47 -59t-62.5 -26.5 q-45 0 -67.5 28.5t-22.5 67.5q0 27 10 55.5t40 52t82 39t138 15.5q137 0 194.5 -40t57.5 -124v-103q0 -53 -12.5 -89t-48 -57.5t-102 -31.5t-173.5 -10h-266q-84 0 -136.5 11.5t-82 29.5t-41 38.5t-11.5 39.5q0 25 10.5 46t26.5 46l35 55q-37 4 -60.5 30t-23.5 64z" />
<glyph unicode="m" horiz-adv-x="1974" d="M55 170v88q0 53 8.5 90t36 58.5t76.5 30.5t133 9q66 0 109 -10t68.5 -26.5t35.5 -38t10 -43.5q0 -23 -19 -49.5t-67 -26.5q-37 0 -64.5 15.5t-53 32.5t-52 32.5t-57.5 15.5q-47 0 -81 -34.5t-34 -100.5q0 -55 49.5 -103.5t141.5 -48.5q90 0 163.5 29t145.5 72t148.5 92 t174 92t221.5 71.5t288 28.5h176q100 0 161.5 -6t93 -23.5t42 -49t10.5 -82.5v-142q0 -68 -41 -105.5t-133 -37.5q-47 0 -89 15.5t-83 33.5t-83 33.5t-85 15.5q-45 0 -78 -17.5t-60.5 -37.5t-55 -37.5t-62.5 -17.5q-41 0 -65.5 21.5t-24.5 62.5q0 23 14 48t43 47.5t72 38 t98 15.5q59 0 117.5 -20.5t112.5 -46.5q53 -25 102 -46.5t90 -21.5q39 0 67.5 12.5t47 33t27 44t8.5 47.5q0 31 -15.5 60.5t-54.5 52t-105.5 36t-169.5 13.5q-133 0 -235 -28.5t-190.5 -71.5t-172.5 -92.5t-176 -92.5t-203.5 -71.5t-254.5 -28.5q-74 0 -117 9t-66.5 29.5 t-32 53.5t-10.5 78z" />
<glyph unicode="n" horiz-adv-x="1974" d="M55 143v142q0 51 10.5 82.5t42 49t92 23.5t162.5 6h177q164 0 287.5 -28.5t221 -71.5t174 -92t148.5 -92t145.5 -72t163.5 -29q92 0 141.5 48.5t49.5 103.5q0 66 -34 100.5t-81 34.5q-31 0 -57.5 -15.5t-52 -32.5t-53 -32.5t-64.5 -15.5q-47 0 -66.5 26.5t-19.5 49.5 t10 44t35.5 37.5t68.5 26.5t109 10q82 0 132 -9t78 -30.5t36 -58.5t8 -90v-88q-2 -45 -10 -78t-32 -53.5t-67 -29.5t-116 -9q-145 0 -256 28.5t-203 71.5t-176 92.5t-172 92.5t-191.5 71.5t-234.5 28.5q-102 0 -169 -13.5t-106 -36t-54 -52t-15 -60.5q0 -25 8 -48 t26.5 -43.5t47 -33t67.5 -12.5q41 0 90.5 21.5t102.5 46.5q53 27 111.5 47t117.5 20q55 0 98 -15.5t72 -38t43 -48t14 -47.5q0 -41 -24.5 -62.5t-65.5 -21.5q-35 0 -62.5 17.5t-55 37.5t-60.5 37.5t-78 17.5q-43 0 -85 -15t-83 -34q-41 -18 -83 -33.5t-89 -15.5 q-92 0 -133 38t-41 105z" />
<glyph unicode="o" horiz-adv-x="1327" d="M29 12h1061l237 13v-50l-237 13h-1061v24z" />
<glyph unicode="p" d="M0 25l973 73l131 -98l-131 -98l-973 73v50zM1284 0l131 98l973 -73v-50l-973 -73z" />
<glyph unicode="q" horiz-adv-x="1327" d="M0 -25v50l238 -13h1060v-24h-1060z" />
<glyph unicode="r" horiz-adv-x="1933" d="M0 25h1933v-50h-1933v50z" />
<glyph unicode="s" horiz-adv-x="1290" d="M16 0q0 39 27 65.5t66 26.5q37 0 63.5 -25.5t28.5 -60.5h45v-12h-45q-4 -37 -30 -61.5t-62 -24.5q-39 0 -66 26.5t-27 65.5zM307 6q92 14 168 53t170 99q94 -59 170 -98.5t168 -53.5v-12q-92 -14 -168 -53t-170 -99q-94 59 -170 98.5t-168 53.5v12zM1044 -6v12h46 q2 35 28.5 60.5t63.5 25.5q39 0 65.5 -26.5t26.5 -65.5t-26.5 -65.5t-65.5 -26.5q-37 0 -62.5 24.5t-29.5 61.5h-46z" />
<glyph unicode="t" d="M0 31h2388v-62h-2388v62z" />
<glyph unicode="u" horiz-adv-x="2121" d="M0 31h209q111 0 232.5 34.5t246.5 102.5l103 57l4 -4q-41 -37 -64.5 -100.5t-23.5 -120.5t23.5 -120.5t64.5 -100.5l-4 -4l-103 57q-125 68 -247 102.5t-232 34.5h-209v62zM850 4q0 31 19.5 58.5t53 48t79 33t96.5 12.5t96 -12.5t79 -33t53.5 -48t19.5 -58.5t-19.5 -58.5 t-53.5 -48t-79 -32.5t-96 -12t-96.5 12t-79 32.5t-53 48t-19.5 58.5zM936 4q0 -39 47 -64.5t115 -25.5t115 25.5t47 64.5t-47.5 64.5t-114.5 25.5q-68 0 -115 -25.5t-47 -64.5zM1401 -225q41 41 64.5 104.5t23.5 120.5t-23.5 120.5t-64.5 104.5l106 -57q125 -68 247 -102.5 t233 -34.5h135v-62h-135q-111 0 -233 -34.5t-247 -102.5z" />
<glyph unicode="v" d="M0 -31v74h2388v-74h-2388z" />
<glyph unicode="w" horiz-adv-x="1630" d="M0 -31v74h127q37 70 106 113q35 23 73 35t77 12q18 0 46 -5t58.5 -19.5t62.5 -41t60 -71.5l68 -109h12l119 483h12l119 -483h12l68 109q27 45 59.5 71.5t63.5 41t58.5 19.5t45.5 5q39 0 77 -12.5t72 -34t61.5 -51t45.5 -62.5h127v-74h-96q0 -53 -14.5 -101t-42 -85 t-71.5 -58.5t-101 -21.5q-61 0 -118 40t-63 122q31 -45 72 -73t72 -28q47 0 89 39t42 105q0 45 -16.5 77.5t-42 54t-59.5 31t-67 9.5q-41 0 -85 -22.5t-89 -98.5l-112 -186h-13l-98 413h-4l-98 -413h-13l-112 186q-45 76 -89 98.5t-85 22.5q-35 0 -68 -9.5t-58.5 -31 t-42 -54t-16.5 -77.5q0 -66 42 -105t89 -39q31 0 72 28t72 73q-6 -82 -62.5 -122t-117.5 -40q-59 0 -102.5 21.5t-71 58.5t-42 85t-14.5 101h-96z" />
<glyph unicode="x" d="M0 31h2388v-62h-2388v62z" />
<glyph unicode="y" horiz-adv-x="2277" d="M0 31h854v-238h6q47 0 92 42t81 100.5t61.5 120t33.5 98.5l11 47l10 -47q8 -37 33.5 -98.5t61.5 -120t81 -100.5t92 -42h6v238h854v-62h-276l-10 -22q-66 -147 -182.5 -214t-284.5 -67h-15q-57 -100 -154.5 -156.5t-215.5 -56.5q-119 0 -216.5 56.5t-154.5 156.5h-14 q-168 0 -285 66.5t-182 214.5l-11 22h-276v62zM424 -31q20 -51 55 -88t77 -59.5t90 -33.5t97 -11v192h-319zM911 -317q33 -53 100 -86t128 -33t127.5 32.5t99.5 86.5q-76 31 -131 80t-96 106q-41 -57 -96.5 -106.5t-131.5 -79.5zM1534 -31v-192q49 0 97 11t90 33.5t77 59.5 t55 88h-319z" />
<glyph unicode="z" horiz-adv-x="2048" d="M29 1165q66 31 94.5 71t28.5 118q0 55 -15.5 100t-35 78t-35 54.5t-15.5 27.5t6 10q4 0 4 2t5 2q8 0 25.5 -18.5t46 -40t69.5 -40t100 -18.5q68 0 127.5 34t116.5 89v-14q0 -154 43 -214q45 -62 131 -63q43 0 81 23t85 64q-20 -37 -31.5 -75t-11.5 -81q0 -82 60.5 -158 t176.5 -108q-25 -43 -50 -97.5t-25 -111.5q0 -53 23.5 -111.5t51.5 -101.5q33 18 55.5 43.5t37 54.5t20.5 58.5t6 56.5q0 57 -24.5 114.5t-55.5 98.5q43 10 73 31.5t48.5 47t26.5 55.5t8 56q0 18 -9 42t-22.5 49.5t-32 49t-36.5 39.5q8 -2 10 -3t5 -1h8h20q76 0 140 28 t114.5 69t88.5 85t60 78q18 -92 48 -161.5t76 -125t110.5 -98.5t154.5 -79q-70 -14 -118 -36t-78.5 -55.5t-45 -83t-14.5 -118.5q0 -49 12.5 -90t42 -76t81 -66t128.5 -59q-59 -20 -116.5 -50t-102.5 -71t-71.5 -95.5t-26.5 -123.5q0 -47 27.5 -109.5t72.5 -129t101.5 -132 t115.5 -119.5l-84 -69q-88 94 -209.5 160.5t-269.5 66.5q-57 0 -114.5 -11t-105.5 -38t-84 -70t-52 -104q-53 147 -126 213.5t-171 66.5q-133 0 -206 -77.5t-89 -188.5q-25 86 -64.5 168t-91.5 135q-61 66 -143 99.5t-170 52.5q43 14 88 35.5t82 52.5t59.5 72t22.5 96 q0 43 -19.5 76.5t-19.5 42.5q0 4 4 10h6q2 0 20.5 -10.5t44 -23.5t56.5 -23.5t59 -10.5q59 0 96.5 20.5t59.5 73.5q49 -57 113.5 -86.5t132.5 -29.5q84 0 137 28.5t72 69.5q-63 47 -129 73.5t-142 26.5q-43 0 -91 -12t-89 -35q-27 61 -58.5 100.5t-78.5 64t-115.5 37.5 t-169.5 26q80 27 106.5 56.5t26.5 70.5q0 147 -288 200zM242 1407q0 -6 41 -53t102 -116t135 -148.5t139.5 -150.5t112.5 -121t57 -60l40.5 -40.5t35 -31.5t39 -24.5t51.5 -18.5q-4 31 -9 52.5t-12 40t-19.5 34.5t-32.5 35q-29 27 -85.5 83t-126 124.5t-145.5 142.5 t-139.5 133.5t-109.5 98t-56 38.5q-6 0 -12 -4t-6 -14zM285 197q0 -12 15 -11.5t58 6t120 12.5t200 7q197 0 347.5 -21.5t263 -52.5t190 -68.5t130 -68.5t81 -52.5t41.5 -21.5q18 0 26 17q4 8 6 18q0 6 -34.5 54t-76.5 153.5t-77 277.5t-35 428q0 145 7 245t16.5 163.5 t16.5 98t7 53.5q0 20 -18 20q-12 0 -29.5 -50t-35 -138t-29 -209t-11.5 -262q0 -176 27 -311.5t58.5 -230.5t60 -148.5t35.5 -63.5v-2q0 -2 -5 -2q-6 0 -30.5 20.5t-70.5 49t-113.5 60.5t-159.5 54q-84 20 -160 32.5t-137.5 19t-102.5 8.5t-55 2q-10 0 -53 -1t-101.5 -5.5 t-124 -10.5t-121 -16t-91 -22.5t-35.5 -30.5zM1090 535q0 -47 37.5 -94.5t90 -86.5t106.5 -62.5t89 -23.5q23 0 23 25q0 18 -18.5 62t-54.5 90.5t-89 82t-123 35.5q-29 0 -45 -3t-16 -25zM1413 -219q0 33 25.5 51t54.5 18t54.5 -18t25.5 -51q0 -31 -22.5 -53.5t-57.5 -22.5 t-57.5 22.5t-22.5 53.5zM1835 178q0 33 25.5 51.5t54.5 18.5t54.5 -18.5t25.5 -51.5q0 -31 -22.5 -53.5t-57.5 -22.5t-57.5 22.5t-22.5 53.5z" />
<glyph unicode="&#xad;" horiz-adv-x="2048" d="M18 168q0 74 35 128t92.5 91t131 57.5t151.5 30.5l12 2l6 8q72 98 182.5 144.5t229.5 46.5q80 0 148.5 -17.5t119.5 -44.5l11 -4l-19 90h12q137 0 232.5 -29.5t155 -77.5t85 -109.5t25.5 -125.5q0 -39 -10 -75.5t-25 -63.5l-6 -12l17 -17q72 -74 123 -101.5t83 -27.5 q41 0 62.5 22.5t21.5 51.5q0 51 -51 62l2 8q16 66 78 65q45 0 76 -33.5t31 -82.5q0 -57 -49.5 -105.5t-147.5 -48.5q-25 0 -52.5 5t-63.5 20.5t-83 42t-110 69.5l-56 37q12 27 13 55q0 57 -17.5 112.5t-45 101.5t-62.5 81t-72 49l-10 5l2 -5q47 -96 63.5 -165.5t16.5 -141.5 v-12q-51 35 -120 70.5t-118 52.5l-4 8q-23 45 -55.5 87t-68.5 74t-70.5 50t-61.5 18h-6l-4 -4l8 -2q47 -29 76 -77t37 -99l2 -8l-8 4q-31 12 -70 22.5t-83 17.5t-88 12t-83 5h-47.5t-46.5 -2v-4h14q174 -23 318.5 -78t259.5 -139l39 -26l-11 -11q-47 -47 -97 -70.5 t-118 -39.5h-4v-4q20 -10 46 -17.5t69 -7.5q55 0 112.5 20.5t96.5 49.5l4 4l90 -90l-6 -7q-41 -33 -102.5 -48t-133.5 -15q-92 0 -171 27.5t-130 68.5l-6 6q25 14 41 38t16 53q0 37 -28.5 76.5t-82.5 72.5t-132 54.5t-178 21.5t-169 -20.5t-111 -53.5t-60.5 -70.5 t-18.5 -70.5q0 -47 27.5 -69.5t50.5 -22.5q14 0 27.5 6t23.5 6q35 0 35 -45q0 -29 -23.5 -53.5t-72.5 -24.5q-18 0 -43 8t-46.5 28.5t-37 52.5t-15.5 79z" />
<glyph unicode="&#x2000;" horiz-adv-x="979" />
<glyph unicode="&#x2001;" horiz-adv-x="1958" />
<glyph unicode="&#x2002;" horiz-adv-x="979" />
<glyph unicode="&#x2003;" horiz-adv-x="1958" />
<glyph unicode="&#x2004;" horiz-adv-x="652" />
<glyph unicode="&#x2005;" horiz-adv-x="489" />
<glyph unicode="&#x2006;" horiz-adv-x="326" />
<glyph unicode="&#x2007;" horiz-adv-x="326" />
<glyph unicode="&#x2008;" horiz-adv-x="244" />
<glyph unicode="&#x2009;" horiz-adv-x="391" />
<glyph unicode="&#x200a;" horiz-adv-x="108" />
<glyph unicode="&#x2010;" horiz-adv-x="2048" d="M18 168q0 74 35 128t92.5 91t131 57.5t151.5 30.5l12 2l6 8q72 98 182.5 144.5t229.5 46.5q80 0 148.5 -17.5t119.5 -44.5l11 -4l-19 90h12q137 0 232.5 -29.5t155 -77.5t85 -109.5t25.5 -125.5q0 -39 -10 -75.5t-25 -63.5l-6 -12l17 -17q72 -74 123 -101.5t83 -27.5 q41 0 62.5 22.5t21.5 51.5q0 51 -51 62l2 8q16 66 78 65q45 0 76 -33.5t31 -82.5q0 -57 -49.5 -105.5t-147.5 -48.5q-25 0 -52.5 5t-63.5 20.5t-83 42t-110 69.5l-56 37q12 27 13 55q0 57 -17.5 112.5t-45 101.5t-62.5 81t-72 49l-10 5l2 -5q47 -96 63.5 -165.5t16.5 -141.5 v-12q-51 35 -120 70.5t-118 52.5l-4 8q-23 45 -55.5 87t-68.5 74t-70.5 50t-61.5 18h-6l-4 -4l8 -2q47 -29 76 -77t37 -99l2 -8l-8 4q-31 12 -70 22.5t-83 17.5t-88 12t-83 5h-47.5t-46.5 -2v-4h14q174 -23 318.5 -78t259.5 -139l39 -26l-11 -11q-47 -47 -97 -70.5 t-118 -39.5h-4v-4q20 -10 46 -17.5t69 -7.5q55 0 112.5 20.5t96.5 49.5l4 4l90 -90l-6 -7q-41 -33 -102.5 -48t-133.5 -15q-92 0 -171 27.5t-130 68.5l-6 6q25 14 41 38t16 53q0 37 -28.5 76.5t-82.5 72.5t-132 54.5t-178 21.5t-169 -20.5t-111 -53.5t-60.5 -70.5 t-18.5 -70.5q0 -47 27.5 -69.5t50.5 -22.5q14 0 27.5 6t23.5 6q35 0 35 -45q0 -29 -23.5 -53.5t-72.5 -24.5q-18 0 -43 8t-46.5 28.5t-37 52.5t-15.5 79z" />
<glyph unicode="&#x2011;" horiz-adv-x="2048" d="M18 168q0 74 35 128t92.5 91t131 57.5t151.5 30.5l12 2l6 8q72 98 182.5 144.5t229.5 46.5q80 0 148.5 -17.5t119.5 -44.5l11 -4l-19 90h12q137 0 232.5 -29.5t155 -77.5t85 -109.5t25.5 -125.5q0 -39 -10 -75.5t-25 -63.5l-6 -12l17 -17q72 -74 123 -101.5t83 -27.5 q41 0 62.5 22.5t21.5 51.5q0 51 -51 62l2 8q16 66 78 65q45 0 76 -33.5t31 -82.5q0 -57 -49.5 -105.5t-147.5 -48.5q-25 0 -52.5 5t-63.5 20.5t-83 42t-110 69.5l-56 37q12 27 13 55q0 57 -17.5 112.5t-45 101.5t-62.5 81t-72 49l-10 5l2 -5q47 -96 63.5 -165.5t16.5 -141.5 v-12q-51 35 -120 70.5t-118 52.5l-4 8q-23 45 -55.5 87t-68.5 74t-70.5 50t-61.5 18h-6l-4 -4l8 -2q47 -29 76 -77t37 -99l2 -8l-8 4q-31 12 -70 22.5t-83 17.5t-88 12t-83 5h-47.5t-46.5 -2v-4h14q174 -23 318.5 -78t259.5 -139l39 -26l-11 -11q-47 -47 -97 -70.5 t-118 -39.5h-4v-4q20 -10 46 -17.5t69 -7.5q55 0 112.5 20.5t96.5 49.5l4 4l90 -90l-6 -7q-41 -33 -102.5 -48t-133.5 -15q-92 0 -171 27.5t-130 68.5l-6 6q25 14 41 38t16 53q0 37 -28.5 76.5t-82.5 72.5t-132 54.5t-178 21.5t-169 -20.5t-111 -53.5t-60.5 -70.5 t-18.5 -70.5q0 -47 27.5 -69.5t50.5 -22.5q14 0 27.5 6t23.5 6q35 0 35 -45q0 -29 -23.5 -53.5t-72.5 -24.5q-18 0 -43 8t-46.5 28.5t-37 52.5t-15.5 79z" />
<glyph unicode="&#x2012;" horiz-adv-x="2048" d="M18 168q0 74 35 128t92.5 91t131 57.5t151.5 30.5l12 2l6 8q72 98 182.5 144.5t229.5 46.5q80 0 148.5 -17.5t119.5 -44.5l11 -4l-19 90h12q137 0 232.5 -29.5t155 -77.5t85 -109.5t25.5 -125.5q0 -39 -10 -75.5t-25 -63.5l-6 -12l17 -17q72 -74 123 -101.5t83 -27.5 q41 0 62.5 22.5t21.5 51.5q0 51 -51 62l2 8q16 66 78 65q45 0 76 -33.5t31 -82.5q0 -57 -49.5 -105.5t-147.5 -48.5q-25 0 -52.5 5t-63.5 20.5t-83 42t-110 69.5l-56 37q12 27 13 55q0 57 -17.5 112.5t-45 101.5t-62.5 81t-72 49l-10 5l2 -5q47 -96 63.5 -165.5t16.5 -141.5 v-12q-51 35 -120 70.5t-118 52.5l-4 8q-23 45 -55.5 87t-68.5 74t-70.5 50t-61.5 18h-6l-4 -4l8 -2q47 -29 76 -77t37 -99l2 -8l-8 4q-31 12 -70 22.5t-83 17.5t-88 12t-83 5h-47.5t-46.5 -2v-4h14q174 -23 318.5 -78t259.5 -139l39 -26l-11 -11q-47 -47 -97 -70.5 t-118 -39.5h-4v-4q20 -10 46 -17.5t69 -7.5q55 0 112.5 20.5t96.5 49.5l4 4l90 -90l-6 -7q-41 -33 -102.5 -48t-133.5 -15q-92 0 -171 27.5t-130 68.5l-6 6q25 14 41 38t16 53q0 37 -28.5 76.5t-82.5 72.5t-132 54.5t-178 21.5t-169 -20.5t-111 -53.5t-60.5 -70.5 t-18.5 -70.5q0 -47 27.5 -69.5t50.5 -22.5q14 0 27.5 6t23.5 6q35 0 35 -45q0 -29 -23.5 -53.5t-72.5 -24.5q-18 0 -43 8t-46.5 28.5t-37 52.5t-15.5 79z" />
<glyph unicode="&#x2013;" horiz-adv-x="1060" d="M18 168q0 74 18 128t47 91t66.5 57.5t77.5 30.5l6 2l3 8q36 98 92.5 144.5t117.5 46.5q40 0 75 -17.5t61 -44.5l6 -4l-10 90h6q70 0 118.5 -29.5t78.5 -77.5t43 -109.5t13 -125.5q0 -39 -5 -75.5t-12 -63.5l-3 -12l8 -17q37 -74 63 -101.5t42 -27.5q21 0 32 22.5t11 51.5 q0 51 -26 62l1 8q8 66 40 65q22 0 38 -33.5t16 -82.5q0 -57 -25 -105.5t-75 -48.5q-13 0 -27 5t-32.5 20.5t-42 42t-56.5 69.5l-28 37q6 27 7 55q0 57 -9 112.5t-23 101.5t-32 81t-37 49l-5 5l1 -5q24 -96 32.5 -165.5t8.5 -141.5v-12q-26 35 -61 70.5t-60 52.5l-2 8 q-12 45 -28.5 87t-35 74t-36 50t-30.5 18h-4l-2 -4l4 -2q24 -29 39 -77t19 -99l1 -8l-4 4q-16 12 -36 22.5t-42 17.5t-44.5 12t-42.5 5h-24.5t-23.5 -2v-4h7q89 -23 162.5 -78t132.5 -139l19 -26l-5 -11q-24 -47 -49.5 -70.5t-60.5 -39.5h-2v-4q10 -10 23.5 -17.5t35.5 -7.5 q28 0 57 20.5t49 49.5l2 4l46 -90l-3 -7q-21 -33 -52 -48t-68 -15q-47 0 -87 27.5t-66 68.5l-3 6q12 14 20.5 38t8.5 53q0 37 -14.5 76.5t-42 72.5t-67.5 54.5t-91 21.5t-86 -20.5t-56.5 -53.5t-30.5 -70.5t-9 -70.5q0 -47 14 -69.5t25 -22.5q7 0 14 6t12 6q18 0 18 -45 q0 -29 -12 -53.5t-37 -24.5q-9 0 -21.5 8t-23.5 28.5t-19 52.5t-8 79z" />
<glyph unicode="&#x2014;" horiz-adv-x="2084" d="M18 168q0 74 35.5 128t94 91t133.5 57.5t154 30.5l13 2l6 8q73 98 185.5 144.5t233.5 46.5q81 0 151 -17.5t122 -44.5l11 -4l-19 90h12q139 0 236.5 -29.5t158 -77.5t86.5 -109.5t26 -125.5q0 -39 -10.5 -75.5t-25.5 -63.5l-6 -12l17 -17q74 -74 125.5 -101.5t84.5 -27.5 q42 0 64 22.5t22 51.5q0 51 -52 62l2 8q16 66 79 65q46 0 77.5 -33.5t31.5 -82.5q0 -57 -50.5 -105.5t-150.5 -48.5q-25 0 -53 5t-64.5 20.5t-84.5 42t-112 69.5l-57 37q12 27 13 55q0 57 -17.5 112.5t-45.5 101.5t-64 81t-73 49l-11 5l3 -5q47 -96 64 -165.5t17 -141.5v-12 q-52 35 -122 70.5t-120 52.5l-4 8q-24 45 -57 87t-69.5 74t-71.5 50t-63 18h-6l-4 -4l8 -2q48 -29 77.5 -77t37.5 -99l2 -8l-8 4q-32 12 -71.5 22.5t-84.5 17.5t-89.5 12t-84.5 5h-48t-48 -2v-4h15q177 -23 324 -78t264 -139l40 -26l-11 -11q-48 -47 -99 -70.5t-120 -39.5 h-4v-4q20 -10 46.5 -17.5t70.5 -7.5q56 0 114.5 20.5t97.5 49.5l4 4l92 -90l-6 -7q-42 -33 -104.5 -48t-135.5 -15q-94 0 -174.5 27.5t-132.5 68.5l-6 6q26 14 42 38t16 53q0 37 -29 76.5t-84 72.5t-134 54.5t-181 21.5t-172.5 -20.5t-113 -53.5t-61.5 -70.5t-19 -70.5 q0 -47 28 -69.5t52 -22.5q14 0 27.5 6t24.5 6q35 0 35 -45q0 -29 -24 -53.5t-73 -24.5q-19 0 -44.5 8t-47 28.5t-37.5 52.5t-16 79z" />
<glyph unicode="&#x202f;" horiz-adv-x="391" />
<glyph unicode="&#x205f;" horiz-adv-x="489" />
<glyph unicode="&#xe000;" horiz-adv-x="30" d="M0 0v31h31v-31h-31z" />
</font>
</defs>
</svg>
